<mxfile host="app.diagrams.net" agent="Mozilla/5.0 (Windows NT 10.0; Win64; x64) AppleWebKit/537.36 (KHTML, like Gecko) Chrome/134.0.0.0 Safari/537.36 Edg/134.0.0.0" version="26.1.1" pages="2">
  <diagram id="t7TPd4fKi6hPEwY7qIBW" name="ver0.2">
    <mxGraphModel grid="1" page="1" gridSize="10" guides="1" tooltips="1" connect="1" arrows="1" fold="1" pageScale="1" pageWidth="827" pageHeight="1169" math="0" shadow="0">
      <root>
        <mxCell id="0" />
        <mxCell id="1" parent="0" />
        <mxCell id="QoQSe-H3zC9wJc1rApx4-232" value="" style="ellipse;whiteSpace=wrap;html=1;aspect=fixed;dashed=1;" vertex="1" parent="1">
          <mxGeometry x="-662.5" y="-787.5" width="2255" height="2255" as="geometry" />
        </mxCell>
        <mxCell id="QoQSe-H3zC9wJc1rApx4-8" value="" style="group;movable=1;resizable=1;rotatable=1;deletable=1;editable=1;locked=0;connectable=1;" connectable="0" vertex="1" parent="1">
          <mxGeometry x="-5" y="-100" width="705" height="880" as="geometry" />
        </mxCell>
        <mxCell id="QoQSe-H3zC9wJc1rApx4-229" value="" style="group;movable=1;resizable=1;rotatable=1;deletable=1;editable=1;locked=0;connectable=1;" connectable="0" vertex="1" parent="QoQSe-H3zC9wJc1rApx4-8">
          <mxGeometry x="-300" y="-350" width="1705" height="1780" as="geometry" />
        </mxCell>
        <mxCell id="QoQSe-H3zC9wJc1rApx4-134" value="" style="ellipse;whiteSpace=wrap;html=1;aspect=fixed;dashed=1;movable=1;resizable=1;rotatable=1;deletable=1;editable=1;locked=0;connectable=1;" vertex="1" parent="QoQSe-H3zC9wJc1rApx4-229">
          <mxGeometry y="80" width="1520" height="1520" as="geometry" />
        </mxCell>
        <mxCell id="1o6I1MqXLG2bBTmN9aGU-20" value="" style="ellipse;whiteSpace=wrap;html=1;aspect=fixed;dashed=1;movable=1;resizable=1;rotatable=1;deletable=1;editable=1;locked=0;connectable=1;" vertex="1" parent="QoQSe-H3zC9wJc1rApx4-229">
          <mxGeometry x="300" y="350" width="900" height="900" as="geometry" />
        </mxCell>
        <mxCell id="1o6I1MqXLG2bBTmN9aGU-13" value="" style="ellipse;whiteSpace=wrap;html=1;aspect=fixed;dashed=1;movable=1;resizable=1;rotatable=1;deletable=1;editable=1;locked=0;connectable=1;" vertex="1" parent="QoQSe-H3zC9wJc1rApx4-229">
          <mxGeometry x="440" y="490" width="620" height="620" as="geometry" />
        </mxCell>
        <mxCell id="QoQSe-H3zC9wJc1rApx4-121" value="&lt;span style=&quot;color: rgba(0, 0, 0, 0); font-family: monospace; font-size: 0px; text-align: start; text-wrap-mode: nowrap;&quot;&gt;%3CmxGraphModel%3E%3Croot%3E%3CmxCell%20id%3D%220%22%2F%3E%3CmxCell%20id%3D%221%22%20parent%3D%220%22%2F%3E%3CmxCell%20id%3D%222%22%20value%3D%22%22%20style%3D%22curved%3D1%3BendArrow%3Dclassic%3Bhtml%3D1%3Brounded%3D0%3BfillColor%3D%23f5f5f5%3BstrokeColor%3D%23666666%3BstrokeWidth%3D3%3Bmovable%3D1%3Bresizable%3D1%3Brotatable%3D1%3Bdeletable%3D1%3Beditable%3D1%3Blocked%3D0%3Bconnectable%3D1%3BexitX%3D0.5%3BexitY%3D0%3BexitDx%3D0%3BexitDy%3D0%3BexitPerimeter%3D0%3BentryX%3D0%3BentryY%3D0.3333333333333333%3BentryDx%3D0%3BentryDy%3D0%3BentryPerimeter%3D0%3Bdashed%3D1%3B%22%20edge%3D%221%22%20parent%3D%221%22%3E%3CmxGeometry%20width%3D%2250%22%20height%3D%2250%22%20relative%3D%221%22%20as%3D%22geometry%22%3E%3CmxPoint%20x%3D%22645%22%20y%3D%22450%22%20as%3D%22sourcePoint%22%2F%3E%3CmxPoint%20x%3D%22690%22%20y%3D%22320%22%20as%3D%22targetPoint%22%2F%3E%3CArray%20as%3D%22points%22%3E%3CmxPoint%20x%3D%22630%22%20y%3D%22370%22%2F%3E%3CmxPoint%20x%3D%22660%22%20y%3D%22320%22%2F%3E%3C%2FArray%3E%3C%2FmxGeometry%3E%3C%2FmxCell%3E%3C%2Froot%3E%3C%2FmxGraphModel%3E&lt;/span&gt;" style="ellipse;whiteSpace=wrap;html=1;aspect=fixed;movable=1;resizable=1;rotatable=1;deletable=1;editable=1;locked=0;connectable=1;fillColor=#fa6800;strokeColor=#C73500;fontColor=#000000;" vertex="1" parent="QoQSe-H3zC9wJc1rApx4-229">
          <mxGeometry x="880" y="340" width="670" height="670" as="geometry" />
        </mxCell>
        <mxCell id="QoQSe-H3zC9wJc1rApx4-33" value="&lt;span style=&quot;color: rgba(0, 0, 0, 0); font-family: monospace; font-size: 0px; text-align: start; text-wrap-mode: nowrap;&quot;&gt;%3CmxGraphModel%3E%3Croot%3E%3CmxCell%20id%3D%220%22%2F%3E%3CmxCell%20id%3D%221%22%20parent%3D%220%22%2F%3E%3CmxCell%20id%3D%222%22%20value%3D%22%22%20style%3D%22curved%3D1%3BendArrow%3Dclassic%3Bhtml%3D1%3Brounded%3D0%3BfillColor%3D%23f5f5f5%3BstrokeColor%3D%23666666%3BstrokeWidth%3D3%3Bmovable%3D1%3Bresizable%3D1%3Brotatable%3D1%3Bdeletable%3D1%3Beditable%3D1%3Blocked%3D0%3Bconnectable%3D1%3BexitX%3D0.5%3BexitY%3D0%3BexitDx%3D0%3BexitDy%3D0%3BexitPerimeter%3D0%3BentryX%3D0%3BentryY%3D0.3333333333333333%3BentryDx%3D0%3BentryDy%3D0%3BentryPerimeter%3D0%3Bdashed%3D1%3B%22%20edge%3D%221%22%20parent%3D%221%22%3E%3CmxGeometry%20width%3D%2250%22%20height%3D%2250%22%20relative%3D%221%22%20as%3D%22geometry%22%3E%3CmxPoint%20x%3D%22645%22%20y%3D%22450%22%20as%3D%22sourcePoint%22%2F%3E%3CmxPoint%20x%3D%22690%22%20y%3D%22320%22%20as%3D%22targetPoint%22%2F%3E%3CArray%20as%3D%22points%22%3E%3CmxPoint%20x%3D%22630%22%20y%3D%22370%22%2F%3E%3CmxPoint%20x%3D%22660%22%20y%3D%22320%22%2F%3E%3C%2FArray%3E%3C%2FmxGeometry%3E%3C%2FmxCell%3E%3C%2Froot%3E%3C%2FmxGraphModel%3E&lt;/span&gt;" style="ellipse;whiteSpace=wrap;html=1;aspect=fixed;movable=1;resizable=1;rotatable=1;deletable=1;editable=1;locked=0;connectable=1;fillColor=#f0a30a;strokeColor=#BD7000;fontColor=#000000;" vertex="1" parent="QoQSe-H3zC9wJc1rApx4-229">
          <mxGeometry x="880" y="550" width="380" height="380" as="geometry" />
        </mxCell>
        <mxCell id="1o6I1MqXLG2bBTmN9aGU-1" value="" style="group;movable=1;resizable=1;rotatable=1;deletable=1;editable=1;locked=0;connectable=1;" connectable="0" vertex="1" parent="QoQSe-H3zC9wJc1rApx4-229">
          <mxGeometry x="590" y="640" width="610" height="610" as="geometry" />
        </mxCell>
        <mxCell id="1o6I1MqXLG2bBTmN9aGU-21" value="&lt;span style=&quot;color: rgba(0, 0, 0, 0); font-family: monospace; font-size: 0px; text-align: start; text-wrap-mode: nowrap;&quot;&gt;%3CmxGraphModel%3E%3Croot%3E%3CmxCell%20id%3D%220%22%2F%3E%3CmxCell%20id%3D%221%22%20parent%3D%220%22%2F%3E%3CmxCell%20id%3D%222%22%20value%3D%22%22%20style%3D%22curved%3D1%3BendArrow%3Dclassic%3Bhtml%3D1%3Brounded%3D0%3BfillColor%3D%23f5f5f5%3BstrokeColor%3D%23666666%3BstrokeWidth%3D3%3Bmovable%3D1%3Bresizable%3D1%3Brotatable%3D1%3Bdeletable%3D1%3Beditable%3D1%3Blocked%3D0%3Bconnectable%3D1%3BexitX%3D0.5%3BexitY%3D0%3BexitDx%3D0%3BexitDy%3D0%3BexitPerimeter%3D0%3BentryX%3D0%3BentryY%3D0.3333333333333333%3BentryDx%3D0%3BentryDy%3D0%3BentryPerimeter%3D0%3Bdashed%3D1%3B%22%20edge%3D%221%22%20parent%3D%221%22%3E%3CmxGeometry%20width%3D%2250%22%20height%3D%2250%22%20relative%3D%221%22%20as%3D%22geometry%22%3E%3CmxPoint%20x%3D%22645%22%20y%3D%22450%22%20as%3D%22sourcePoint%22%2F%3E%3CmxPoint%20x%3D%22690%22%20y%3D%22320%22%20as%3D%22targetPoint%22%2F%3E%3CArray%20as%3D%22points%22%3E%3CmxPoint%20x%3D%22630%22%20y%3D%22370%22%2F%3E%3CmxPoint%20x%3D%22660%22%20y%3D%22320%22%2F%3E%3C%2FArray%3E%3C%2FmxGeometry%3E%3C%2FmxCell%3E%3C%2Froot%3E%3C%2FmxGraphModel%3E&lt;/span&gt;" style="ellipse;whiteSpace=wrap;html=1;aspect=fixed;movable=1;resizable=1;rotatable=1;deletable=1;editable=1;locked=0;connectable=1;fillColor=#e3c800;fontColor=#000000;strokeColor=#B09500;" vertex="1" parent="1o6I1MqXLG2bBTmN9aGU-1">
          <mxGeometry x="295" y="40" width="170" height="170" as="geometry" />
        </mxCell>
        <mxCell id="1o6I1MqXLG2bBTmN9aGU-16" value="ワーク参加者" style="shape=umlActor;verticalLabelPosition=bottom;verticalAlign=top;html=1;outlineConnect=0;movable=1;resizable=1;rotatable=1;deletable=1;editable=1;locked=0;connectable=1;" vertex="1" parent="1o6I1MqXLG2bBTmN9aGU-1">
          <mxGeometry x="345" y="60" width="30" height="60" as="geometry" />
        </mxCell>
        <mxCell id="1o6I1MqXLG2bBTmN9aGU-19" value="ワーク参加者" style="shape=umlActor;verticalLabelPosition=bottom;verticalAlign=top;html=1;outlineConnect=0;movable=1;resizable=1;rotatable=1;deletable=1;editable=1;locked=0;connectable=1;" vertex="1" parent="1o6I1MqXLG2bBTmN9aGU-1">
          <mxGeometry x="395" y="90" width="30" height="60" as="geometry" />
        </mxCell>
        <mxCell id="1o6I1MqXLG2bBTmN9aGU-31" value="" style="group;movable=1;resizable=1;rotatable=1;deletable=1;editable=1;locked=0;connectable=1;" connectable="0" vertex="1" parent="1o6I1MqXLG2bBTmN9aGU-1">
          <mxGeometry width="320" height="360" as="geometry" />
        </mxCell>
        <mxCell id="1o6I1MqXLG2bBTmN9aGU-3" value="" style="ellipse;whiteSpace=wrap;html=1;aspect=fixed;movable=1;resizable=1;rotatable=1;deletable=1;editable=1;locked=0;connectable=1;fillColor=#f8cecc;strokeColor=#b85450;" vertex="1" parent="1o6I1MqXLG2bBTmN9aGU-31">
          <mxGeometry width="320" height="320" as="geometry" />
        </mxCell>
        <mxCell id="1o6I1MqXLG2bBTmN9aGU-4" value="部員" style="shape=umlActor;verticalLabelPosition=bottom;verticalAlign=top;html=1;outlineConnect=0;movable=1;resizable=1;rotatable=1;deletable=1;editable=1;locked=0;connectable=1;" vertex="1" parent="1o6I1MqXLG2bBTmN9aGU-31">
          <mxGeometry x="55" y="170" width="30" height="60" as="geometry" />
        </mxCell>
        <mxCell id="1o6I1MqXLG2bBTmN9aGU-5" value="部員" style="shape=umlActor;verticalLabelPosition=bottom;verticalAlign=top;html=1;outlineConnect=0;movable=1;resizable=1;rotatable=1;deletable=1;editable=1;locked=0;connectable=1;" vertex="1" parent="1o6I1MqXLG2bBTmN9aGU-31">
          <mxGeometry x="145" y="170" width="30" height="60" as="geometry" />
        </mxCell>
        <mxCell id="1o6I1MqXLG2bBTmN9aGU-6" value="ワークリーダー" style="shape=umlActor;verticalLabelPosition=bottom;verticalAlign=top;html=1;outlineConnect=0;movable=1;resizable=1;rotatable=1;deletable=1;editable=1;locked=0;connectable=1;" vertex="1" parent="1o6I1MqXLG2bBTmN9aGU-31">
          <mxGeometry x="145" y="40" width="30" height="60" as="geometry" />
        </mxCell>
        <mxCell id="1o6I1MqXLG2bBTmN9aGU-7" value="部員" style="shape=umlActor;verticalLabelPosition=bottom;verticalAlign=top;html=1;outlineConnect=0;movable=1;resizable=1;rotatable=1;deletable=1;editable=1;locked=0;connectable=1;" vertex="1" parent="1o6I1MqXLG2bBTmN9aGU-31">
          <mxGeometry x="235" y="170" width="30" height="60" as="geometry" />
        </mxCell>
        <mxCell id="1o6I1MqXLG2bBTmN9aGU-8" value="" style="shape=flexArrow;endArrow=classic;html=1;rounded=0;fillColor=#FFE599;width=7.2727272727272725;endSize=5.090909090909091;endWidth=5.19742883379247;movable=1;resizable=1;rotatable=1;deletable=1;editable=1;locked=0;connectable=1;" edge="1" parent="1o6I1MqXLG2bBTmN9aGU-31">
          <mxGeometry width="50" height="50" relative="1" as="geometry">
            <mxPoint x="225" y="200.20999999999998" as="sourcePoint" />
            <mxPoint x="195" y="199.77999999999997" as="targetPoint" />
          </mxGeometry>
        </mxCell>
        <mxCell id="1o6I1MqXLG2bBTmN9aGU-9" value="" style="shape=flexArrow;endArrow=classic;html=1;rounded=0;fillColor=#FFE599;width=7.2727272727272725;endSize=5.090909090909091;endWidth=5.19742883379247;movable=1;resizable=1;rotatable=1;deletable=1;editable=1;locked=0;connectable=1;" edge="1" parent="1o6I1MqXLG2bBTmN9aGU-31">
          <mxGeometry width="50" height="50" relative="1" as="geometry">
            <mxPoint x="128.5" y="200.18" as="sourcePoint" />
            <mxPoint x="98.5" y="199.75" as="targetPoint" />
          </mxGeometry>
        </mxCell>
        <mxCell id="1o6I1MqXLG2bBTmN9aGU-10" value="" style="shape=flexArrow;endArrow=classic;html=1;rounded=0;fillColor=#FFE599;width=7.2727272727272725;endSize=5.090909090909091;endWidth=5.19742883379247;movable=1;resizable=1;rotatable=1;deletable=1;editable=1;locked=0;connectable=1;" edge="1" parent="1o6I1MqXLG2bBTmN9aGU-31">
          <mxGeometry width="50" height="50" relative="1" as="geometry">
            <mxPoint x="85" y="150.43" as="sourcePoint" />
            <mxPoint x="105" y="130" as="targetPoint" />
          </mxGeometry>
        </mxCell>
        <mxCell id="1o6I1MqXLG2bBTmN9aGU-11" value="" style="shape=flexArrow;endArrow=classic;html=1;rounded=0;fillColor=#FFE599;width=7.2727272727272725;endSize=5.090909090909091;endWidth=5.19742883379247;movable=1;resizable=1;rotatable=1;deletable=1;editable=1;locked=0;connectable=1;" edge="1" parent="1o6I1MqXLG2bBTmN9aGU-31">
          <mxGeometry width="50" height="50" relative="1" as="geometry">
            <mxPoint x="215" y="130.43" as="sourcePoint" />
            <mxPoint x="235" y="150" as="targetPoint" />
          </mxGeometry>
        </mxCell>
        <mxCell id="1o6I1MqXLG2bBTmN9aGU-12" value="&lt;b style=&quot;&quot;&gt;&lt;font style=&quot;font-size: 18px;&quot;&gt;部室&lt;/font&gt;&lt;/b&gt;" style="text;html=1;align=center;verticalAlign=middle;whiteSpace=wrap;rounded=0;movable=1;resizable=1;rotatable=1;deletable=1;editable=1;locked=0;connectable=1;" vertex="1" parent="1o6I1MqXLG2bBTmN9aGU-31">
          <mxGeometry x="50.62" y="270" width="218.75" height="40" as="geometry" />
        </mxCell>
        <mxCell id="QoQSe-H3zC9wJc1rApx4-35" value="ワーク観覧者" style="shape=umlActor;verticalLabelPosition=bottom;verticalAlign=top;html=1;outlineConnect=0;movable=1;resizable=1;rotatable=1;deletable=1;editable=1;locked=0;connectable=1;" vertex="1" parent="1o6I1MqXLG2bBTmN9aGU-1">
          <mxGeometry x="542" width="30" height="60" as="geometry" />
        </mxCell>
        <mxCell id="QoQSe-H3zC9wJc1rApx4-150" value="ワーク観覧者" style="shape=umlActor;verticalLabelPosition=bottom;verticalAlign=top;html=1;outlineConnect=0;movable=1;resizable=1;rotatable=1;deletable=1;editable=1;locked=0;connectable=1;" vertex="1" parent="1o6I1MqXLG2bBTmN9aGU-1">
          <mxGeometry x="415" y="550" width="30" height="60" as="geometry" />
        </mxCell>
        <mxCell id="1o6I1MqXLG2bBTmN9aGU-23" value="ワーク観覧者" style="shape=umlActor;verticalLabelPosition=bottom;verticalAlign=top;html=1;outlineConnect=0;movable=1;resizable=1;rotatable=1;deletable=1;editable=1;locked=0;connectable=1;" vertex="1" parent="QoQSe-H3zC9wJc1rApx4-229">
          <mxGeometry x="935" y="440" width="30" height="60" as="geometry" />
        </mxCell>
        <mxCell id="1o6I1MqXLG2bBTmN9aGU-26" value="ワーク観覧者" style="shape=umlActor;verticalLabelPosition=bottom;verticalAlign=top;html=1;outlineConnect=0;movable=1;resizable=1;rotatable=1;deletable=1;editable=1;locked=0;connectable=1;" vertex="1" parent="QoQSe-H3zC9wJc1rApx4-229">
          <mxGeometry x="485" y="400" width="30" height="60" as="geometry" />
        </mxCell>
        <mxCell id="1o6I1MqXLG2bBTmN9aGU-27" value="ワーク観覧者" style="shape=umlActor;verticalLabelPosition=bottom;verticalAlign=top;html=1;outlineConnect=0;movable=1;resizable=1;rotatable=1;deletable=1;editable=1;locked=0;connectable=1;" vertex="1" parent="QoQSe-H3zC9wJc1rApx4-229">
          <mxGeometry x="365" y="840" width="30" height="60" as="geometry" />
        </mxCell>
        <mxCell id="QoQSe-H3zC9wJc1rApx4-6" value="" style="curved=1;endArrow=classic;html=1;rounded=0;entryX=1;entryY=1;entryDx=0;entryDy=0;entryPerimeter=0;strokeWidth=3;fillColor=#f5f5f5;strokeColor=#666666;dashed=1;movable=1;resizable=1;rotatable=1;deletable=1;editable=1;locked=0;connectable=1;" edge="1" parent="QoQSe-H3zC9wJc1rApx4-229">
          <mxGeometry width="50" height="50" relative="1" as="geometry">
            <mxPoint x="1125" y="790" as="sourcePoint" />
            <mxPoint x="1060" y="760" as="targetPoint" />
            <Array as="points">
              <mxPoint x="1120" y="790" />
            </Array>
          </mxGeometry>
        </mxCell>
        <mxCell id="QoQSe-H3zC9wJc1rApx4-1" value="" style="curved=1;endArrow=classic;html=1;rounded=0;fillColor=#f5f5f5;strokeColor=#666666;strokeWidth=3;movable=1;resizable=1;rotatable=1;deletable=1;editable=1;locked=0;connectable=1;dashed=1;" edge="1" parent="QoQSe-H3zC9wJc1rApx4-229">
          <mxGeometry width="50" height="50" relative="1" as="geometry">
            <mxPoint x="930" y="880" as="sourcePoint" />
            <mxPoint x="955" y="790" as="targetPoint" />
            <Array as="points">
              <mxPoint x="915" y="840" />
              <mxPoint x="935" y="790" />
            </Array>
          </mxGeometry>
        </mxCell>
        <mxCell id="QoQSe-H3zC9wJc1rApx4-2" value="" style="curved=1;endArrow=classic;html=1;rounded=0;fillColor=#f5f5f5;strokeColor=#666666;strokeWidth=3;movable=1;resizable=1;rotatable=1;deletable=1;editable=1;locked=0;connectable=1;dashed=1;" edge="1" parent="QoQSe-H3zC9wJc1rApx4-229" target="1o6I1MqXLG2bBTmN9aGU-21">
          <mxGeometry width="50" height="50" relative="1" as="geometry">
            <mxPoint x="805" y="690" as="sourcePoint" />
            <mxPoint x="935" y="673.6842105263158" as="targetPoint" />
            <Array as="points">
              <mxPoint x="855" y="640" />
            </Array>
          </mxGeometry>
        </mxCell>
        <mxCell id="1o6I1MqXLG2bBTmN9aGU-22" value="ワーク観覧者" style="shape=umlActor;verticalLabelPosition=bottom;verticalAlign=top;html=1;outlineConnect=0;movable=1;resizable=1;rotatable=1;deletable=1;editable=1;locked=0;connectable=1;" vertex="1" parent="QoQSe-H3zC9wJc1rApx4-229">
          <mxGeometry x="1045" y="580" width="30" height="60" as="geometry" />
        </mxCell>
        <mxCell id="QoQSe-H3zC9wJc1rApx4-7" value="&lt;font style=&quot;font-size: 14px;&quot;&gt;&lt;b&gt;ワーク合宿&lt;/b&gt;&lt;/font&gt;" style="text;html=1;align=center;verticalAlign=middle;whiteSpace=wrap;rounded=0;movable=1;resizable=1;rotatable=1;deletable=1;editable=1;locked=0;connectable=1;" vertex="1" parent="QoQSe-H3zC9wJc1rApx4-229">
          <mxGeometry x="915" y="850" width="130" height="30" as="geometry" />
        </mxCell>
        <mxCell id="1o6I1MqXLG2bBTmN9aGU-29" value="ワーク観覧者" style="shape=umlActor;verticalLabelPosition=bottom;verticalAlign=top;html=1;outlineConnect=0;movable=1;resizable=1;rotatable=1;deletable=1;editable=1;locked=0;connectable=1;" vertex="1" parent="QoQSe-H3zC9wJc1rApx4-229">
          <mxGeometry x="1145" y="780" width="30" height="60" as="geometry" />
        </mxCell>
        <mxCell id="QoQSe-H3zC9wJc1rApx4-34" value="&lt;font style=&quot;font-size: 14px;&quot;&gt;&lt;b&gt;発表会&lt;/b&gt;&lt;/font&gt;" style="text;html=1;align=center;verticalAlign=middle;whiteSpace=wrap;rounded=0;movable=1;resizable=1;rotatable=1;deletable=1;editable=1;locked=0;connectable=1;" vertex="1" parent="QoQSe-H3zC9wJc1rApx4-229">
          <mxGeometry x="1025" y="930" width="130" height="30" as="geometry" />
        </mxCell>
        <mxCell id="QoQSe-H3zC9wJc1rApx4-22" value="&lt;span style=&quot;color: rgba(0, 0, 0, 0); font-family: monospace; font-size: 0px; text-align: start; text-wrap-mode: nowrap;&quot;&gt;%3CmxGraphModel%3E%3Croot%3E%3CmxCell%20id%3D%220%22%2F%3E%3CmxCell%20id%3D%221%22%20parent%3D%220%22%2F%3E%3CmxCell%20id%3D%222%22%20value%3D%22%22%20style%3D%22curved%3D1%3BendArrow%3Dclassic%3Bhtml%3D1%3Brounded%3D0%3BfillColor%3D%23f5f5f5%3BstrokeColor%3D%23666666%3BstrokeWidth%3D3%3Bmovable%3D1%3Bresizable%3D1%3Brotatable%3D1%3Bdeletable%3D1%3Beditable%3D1%3Blocked%3D0%3Bconnectable%3D1%3BexitX%3D0.5%3BexitY%3D0%3BexitDx%3D0%3BexitDy%3D0%3BexitPerimeter%3D0%3BentryX%3D0%3BentryY%3D0.3333333333333333%3BentryDx%3D0%3BentryDy%3D0%3BentryPerimeter%3D0%3Bdashed%3D1%3B%22%20edge%3D%221%22%20parent%3D%221%22%3E%3CmxGeometry%20width%3D%2250%22%20height%3D%2250%22%20relative%3D%221%22%20as%3D%22geometry%22%3E%3CmxPoint%20x%3D%22645%22%20y%3D%22450%22%20as%3D%22sourcePoint%22%2F%3E%3CmxPoint%20x%3D%22690%22%20y%3D%22320%22%20as%3D%22targetPoint%22%2F%3E%3CArray%20as%3D%22points%22%3E%3CmxPoint%20x%3D%22630%22%20y%3D%22370%22%2F%3E%3CmxPoint%20x%3D%22660%22%20y%3D%22320%22%2F%3E%3C%2FArray%3E%3C%2FmxGeometry%3E%3C%2FmxCell%3E%3C%2Froot%3E%3C%2FmxGraphModel%3E&lt;/span&gt;" style="ellipse;whiteSpace=wrap;html=1;aspect=fixed;movable=1;resizable=1;rotatable=1;deletable=1;editable=1;locked=0;connectable=1;fillColor=#dae8fc;strokeColor=#6c8ebf;" vertex="1" parent="QoQSe-H3zC9wJc1rApx4-229">
          <mxGeometry x="665" y="990" width="320" height="320" as="geometry" />
        </mxCell>
        <mxCell id="QoQSe-H3zC9wJc1rApx4-24" value="ワーク参加者" style="shape=umlActor;verticalLabelPosition=bottom;verticalAlign=top;html=1;outlineConnect=0;movable=1;resizable=1;rotatable=1;deletable=1;editable=1;locked=0;connectable=1;" vertex="1" parent="QoQSe-H3zC9wJc1rApx4-229">
          <mxGeometry x="880" y="1170" width="30" height="60" as="geometry" />
        </mxCell>
        <mxCell id="QoQSe-H3zC9wJc1rApx4-122" value="&lt;font style=&quot;font-size: 14px;&quot;&gt;&lt;b&gt;公演&lt;/b&gt;&lt;/font&gt;" style="text;html=1;align=center;verticalAlign=middle;whiteSpace=wrap;rounded=0;movable=1;resizable=1;rotatable=1;deletable=1;editable=1;locked=0;connectable=1;" vertex="1" parent="QoQSe-H3zC9wJc1rApx4-229">
          <mxGeometry x="1150" y="1010" width="130" height="30" as="geometry" />
        </mxCell>
        <mxCell id="QoQSe-H3zC9wJc1rApx4-123" value="観客" style="shape=umlActor;verticalLabelPosition=bottom;verticalAlign=top;html=1;outlineConnect=0;movable=1;resizable=1;rotatable=1;deletable=1;editable=1;locked=0;connectable=1;" vertex="1" parent="QoQSe-H3zC9wJc1rApx4-229">
          <mxGeometry x="1132" y="420" width="30" height="60" as="geometry" />
        </mxCell>
        <mxCell id="QoQSe-H3zC9wJc1rApx4-124" value="観客" style="shape=umlActor;verticalLabelPosition=bottom;verticalAlign=top;html=1;outlineConnect=0;movable=1;resizable=1;rotatable=1;deletable=1;editable=1;locked=0;connectable=1;" vertex="1" parent="QoQSe-H3zC9wJc1rApx4-229">
          <mxGeometry x="1280" y="400" width="30" height="60" as="geometry" />
        </mxCell>
        <mxCell id="QoQSe-H3zC9wJc1rApx4-125" value="観客" style="shape=umlActor;verticalLabelPosition=bottom;verticalAlign=top;html=1;outlineConnect=0;movable=1;resizable=1;rotatable=1;deletable=1;editable=1;locked=0;connectable=1;" vertex="1" parent="QoQSe-H3zC9wJc1rApx4-229">
          <mxGeometry x="1385" y="490" width="30" height="60" as="geometry" />
        </mxCell>
        <mxCell id="QoQSe-H3zC9wJc1rApx4-131" value="観客" style="shape=umlActor;verticalLabelPosition=bottom;verticalAlign=top;html=1;outlineConnect=0;movable=1;resizable=1;rotatable=1;deletable=1;editable=1;locked=0;connectable=1;" vertex="1" parent="QoQSe-H3zC9wJc1rApx4-229">
          <mxGeometry x="1385" y="630" width="30" height="60" as="geometry" />
        </mxCell>
        <mxCell id="QoQSe-H3zC9wJc1rApx4-132" value="観客" style="shape=umlActor;verticalLabelPosition=bottom;verticalAlign=top;html=1;outlineConnect=0;movable=1;resizable=1;rotatable=1;deletable=1;editable=1;locked=0;connectable=1;" vertex="1" parent="QoQSe-H3zC9wJc1rApx4-229">
          <mxGeometry x="1365" y="810" width="30" height="60" as="geometry" />
        </mxCell>
        <mxCell id="QoQSe-H3zC9wJc1rApx4-133" value="観客" style="shape=umlActor;verticalLabelPosition=bottom;verticalAlign=top;html=1;outlineConnect=0;movable=1;resizable=1;rotatable=1;deletable=1;editable=1;locked=0;connectable=1;" vertex="1" parent="QoQSe-H3zC9wJc1rApx4-229">
          <mxGeometry x="1280" y="880" width="30" height="60" as="geometry" />
        </mxCell>
        <mxCell id="QoQSe-H3zC9wJc1rApx4-135" value="観客" style="shape=umlActor;verticalLabelPosition=bottom;verticalAlign=top;html=1;outlineConnect=0;movable=1;resizable=1;rotatable=1;deletable=1;editable=1;locked=0;connectable=1;" vertex="1" parent="QoQSe-H3zC9wJc1rApx4-229">
          <mxGeometry x="1280" y="580" width="30" height="60" as="geometry" />
        </mxCell>
        <mxCell id="QoQSe-H3zC9wJc1rApx4-137" value="" style="group;movable=1;resizable=1;rotatable=1;deletable=1;editable=1;locked=0;connectable=1;" connectable="0" vertex="1" parent="QoQSe-H3zC9wJc1rApx4-229">
          <mxGeometry x="545" y="190" width="250" height="290" as="geometry" />
        </mxCell>
        <mxCell id="QoQSe-H3zC9wJc1rApx4-138" value="&lt;span style=&quot;color: rgba(0, 0, 0, 0); font-family: monospace; font-size: 0px; text-align: start; text-wrap-mode: nowrap;&quot;&gt;%3CmxGraphModel%3E%3Croot%3E%3CmxCell%20id%3D%220%22%2F%3E%3CmxCell%20id%3D%221%22%20parent%3D%220%22%2F%3E%3CmxCell%20id%3D%222%22%20value%3D%22%22%20style%3D%22curved%3D1%3BendArrow%3Dclassic%3Bhtml%3D1%3Brounded%3D0%3BfillColor%3D%23f5f5f5%3BstrokeColor%3D%23666666%3BstrokeWidth%3D3%3Bmovable%3D1%3Bresizable%3D1%3Brotatable%3D1%3Bdeletable%3D1%3Beditable%3D1%3Blocked%3D0%3Bconnectable%3D1%3BexitX%3D0.5%3BexitY%3D0%3BexitDx%3D0%3BexitDy%3D0%3BexitPerimeter%3D0%3BentryX%3D0%3BentryY%3D0.3333333333333333%3BentryDx%3D0%3BentryDy%3D0%3BentryPerimeter%3D0%3Bdashed%3D1%3B%22%20edge%3D%221%22%20parent%3D%221%22%3E%3CmxGeometry%20width%3D%2250%22%20height%3D%2250%22%20relative%3D%221%22%20as%3D%22geometry%22%3E%3CmxPoint%20x%3D%22645%22%20y%3D%22450%22%20as%3D%22sourcePoint%22%2F%3E%3CmxPoint%20x%3D%22690%22%20y%3D%22320%22%20as%3D%22targetPoint%22%2F%3E%3CArray%20as%3D%22points%22%3E%3CmxPoint%20x%3D%22630%22%20y%3D%22370%22%2F%3E%3CmxPoint%20x%3D%22660%22%20y%3D%22320%22%2F%3E%3C%2FArray%3E%3C%2FmxGeometry%3E%3C%2FmxCell%3E%3C%2Froot%3E%3C%2FmxGraphModel%3E&lt;/span&gt;" style="ellipse;whiteSpace=wrap;html=1;aspect=fixed;movable=1;resizable=1;rotatable=1;deletable=1;editable=1;locked=0;connectable=1;fillColor=#ffe6cc;strokeColor=#d79b00;" vertex="1" parent="QoQSe-H3zC9wJc1rApx4-137">
          <mxGeometry width="250" height="250" as="geometry" />
        </mxCell>
        <mxCell id="QoQSe-H3zC9wJc1rApx4-139" value="ワーク参加者" style="shape=umlActor;verticalLabelPosition=bottom;verticalAlign=top;html=1;outlineConnect=0;movable=1;resizable=1;rotatable=1;deletable=1;editable=1;locked=0;connectable=1;" vertex="1" parent="QoQSe-H3zC9wJc1rApx4-137">
          <mxGeometry x="60" y="40" width="30" height="60" as="geometry" />
        </mxCell>
        <mxCell id="QoQSe-H3zC9wJc1rApx4-140" value="ワーク参加者" style="shape=umlActor;verticalLabelPosition=bottom;verticalAlign=top;html=1;outlineConnect=0;movable=1;resizable=1;rotatable=1;deletable=1;editable=1;locked=0;connectable=1;" vertex="1" parent="QoQSe-H3zC9wJc1rApx4-137">
          <mxGeometry x="110" y="150" width="30" height="60" as="geometry" />
        </mxCell>
        <mxCell id="QoQSe-H3zC9wJc1rApx4-141" value="ワーク参加者" style="shape=umlActor;verticalLabelPosition=bottom;verticalAlign=top;html=1;outlineConnect=0;movable=1;resizable=1;rotatable=1;deletable=1;editable=1;locked=0;connectable=1;" vertex="1" parent="QoQSe-H3zC9wJc1rApx4-137">
          <mxGeometry x="160" y="40" width="30" height="60" as="geometry" />
        </mxCell>
        <mxCell id="QoQSe-H3zC9wJc1rApx4-142" value="" style="curved=1;endArrow=classic;html=1;rounded=0;entryX=1;entryY=1;entryDx=0;entryDy=0;entryPerimeter=0;strokeWidth=3;fillColor=#f5f5f5;strokeColor=#666666;dashed=1;movable=1;resizable=1;rotatable=1;deletable=1;editable=1;locked=0;connectable=1;" edge="1" parent="QoQSe-H3zC9wJc1rApx4-137">
          <mxGeometry width="50" height="50" relative="1" as="geometry">
            <mxPoint x="300" y="180" as="sourcePoint" />
            <mxPoint x="175" y="160" as="targetPoint" />
            <Array as="points">
              <mxPoint x="235" y="190" />
            </Array>
          </mxGeometry>
        </mxCell>
        <mxCell id="QoQSe-H3zC9wJc1rApx4-143" value="" style="curved=1;endArrow=classic;html=1;rounded=0;fillColor=#f5f5f5;strokeColor=#666666;strokeWidth=3;movable=1;resizable=1;rotatable=1;deletable=1;editable=1;locked=0;connectable=1;entryX=0;entryY=0.3333333333333333;entryDx=0;entryDy=0;entryPerimeter=0;dashed=1;" edge="1" parent="QoQSe-H3zC9wJc1rApx4-137">
          <mxGeometry width="50" height="50" relative="1" as="geometry">
            <mxPoint x="25" y="260" as="sourcePoint" />
            <mxPoint x="70" y="170" as="targetPoint" />
            <Array as="points">
              <mxPoint x="10" y="220" />
              <mxPoint x="40" y="170" />
            </Array>
          </mxGeometry>
        </mxCell>
        <mxCell id="QoQSe-H3zC9wJc1rApx4-144" value="&lt;font style=&quot;font-size: 14px;&quot;&gt;&lt;b&gt;ワーク&lt;/b&gt;&lt;/font&gt;&lt;b style=&quot;font-size: 14px; background-color: transparent; color: light-dark(rgb(0, 0, 0), rgb(255, 255, 255));&quot;&gt;（現地）&lt;/b&gt;" style="text;html=1;align=center;verticalAlign=middle;whiteSpace=wrap;rounded=0;movable=1;resizable=1;rotatable=1;deletable=1;editable=1;locked=0;connectable=1;" vertex="1" parent="QoQSe-H3zC9wJc1rApx4-137">
          <mxGeometry x="60" y="250" width="130" height="30" as="geometry" />
        </mxCell>
        <mxCell id="1o6I1MqXLG2bBTmN9aGU-24" value="ワーク観覧者" style="shape=umlActor;verticalLabelPosition=bottom;verticalAlign=top;html=1;outlineConnect=0;movable=1;resizable=1;rotatable=1;deletable=1;editable=1;locked=0;connectable=1;" vertex="1" parent="QoQSe-H3zC9wJc1rApx4-229">
          <mxGeometry x="825" y="170" width="30" height="60" as="geometry" />
        </mxCell>
        <mxCell id="QoQSe-H3zC9wJc1rApx4-151" value="ワーク観覧者" style="shape=umlActor;verticalLabelPosition=bottom;verticalAlign=top;html=1;outlineConnect=0;movable=1;resizable=1;rotatable=1;deletable=1;editable=1;locked=0;connectable=1;" vertex="1" parent="QoQSe-H3zC9wJc1rApx4-229">
          <mxGeometry x="645" y="1280" width="30" height="60" as="geometry" />
        </mxCell>
        <mxCell id="QoQSe-H3zC9wJc1rApx4-158" value="" style="curved=1;endArrow=classic;html=1;rounded=0;entryX=1;entryY=1;entryDx=0;entryDy=0;entryPerimeter=0;strokeWidth=3;fillColor=#f5f5f5;strokeColor=#666666;dashed=1;movable=1;resizable=1;rotatable=1;deletable=1;editable=1;locked=0;connectable=1;" edge="1" parent="QoQSe-H3zC9wJc1rApx4-229">
          <mxGeometry width="50" height="50" relative="1" as="geometry">
            <mxPoint x="1300" y="710" as="sourcePoint" />
            <mxPoint x="1205" y="730" as="targetPoint" />
            <Array as="points" />
          </mxGeometry>
        </mxCell>
        <mxCell id="QoQSe-H3zC9wJc1rApx4-159" value="ワーク観覧者" style="shape=umlActor;verticalLabelPosition=bottom;verticalAlign=top;html=1;outlineConnect=0;movable=1;resizable=1;rotatable=1;deletable=1;editable=1;locked=0;connectable=1;" vertex="1" parent="QoQSe-H3zC9wJc1rApx4-229">
          <mxGeometry x="1245" y="1100" width="30" height="60" as="geometry" />
        </mxCell>
        <mxCell id="QoQSe-H3zC9wJc1rApx4-160" value="" style="group;movable=1;resizable=1;rotatable=1;deletable=1;editable=1;locked=0;connectable=1;" connectable="0" vertex="1" parent="QoQSe-H3zC9wJc1rApx4-229">
          <mxGeometry x="1305" y="890" width="250" height="290" as="geometry" />
        </mxCell>
        <mxCell id="QoQSe-H3zC9wJc1rApx4-161" value="&lt;span style=&quot;color: rgba(0, 0, 0, 0); font-family: monospace; font-size: 0px; text-align: start; text-wrap-mode: nowrap;&quot;&gt;%3CmxGraphModel%3E%3Croot%3E%3CmxCell%20id%3D%220%22%2F%3E%3CmxCell%20id%3D%221%22%20parent%3D%220%22%2F%3E%3CmxCell%20id%3D%222%22%20value%3D%22%22%20style%3D%22curved%3D1%3BendArrow%3Dclassic%3Bhtml%3D1%3Brounded%3D0%3BfillColor%3D%23f5f5f5%3BstrokeColor%3D%23666666%3BstrokeWidth%3D3%3Bmovable%3D1%3Bresizable%3D1%3Brotatable%3D1%3Bdeletable%3D1%3Beditable%3D1%3Blocked%3D0%3Bconnectable%3D1%3BexitX%3D0.5%3BexitY%3D0%3BexitDx%3D0%3BexitDy%3D0%3BexitPerimeter%3D0%3BentryX%3D0%3BentryY%3D0.3333333333333333%3BentryDx%3D0%3BentryDy%3D0%3BentryPerimeter%3D0%3Bdashed%3D1%3B%22%20edge%3D%221%22%20parent%3D%221%22%3E%3CmxGeometry%20width%3D%2250%22%20height%3D%2250%22%20relative%3D%221%22%20as%3D%22geometry%22%3E%3CmxPoint%20x%3D%22645%22%20y%3D%22450%22%20as%3D%22sourcePoint%22%2F%3E%3CmxPoint%20x%3D%22690%22%20y%3D%22320%22%20as%3D%22targetPoint%22%2F%3E%3CArray%20as%3D%22points%22%3E%3CmxPoint%20x%3D%22630%22%20y%3D%22370%22%2F%3E%3CmxPoint%20x%3D%22660%22%20y%3D%22320%22%2F%3E%3C%2FArray%3E%3C%2FmxGeometry%3E%3C%2FmxCell%3E%3C%2Froot%3E%3C%2FmxGraphModel%3E&lt;/span&gt;" style="ellipse;whiteSpace=wrap;html=1;aspect=fixed;movable=1;resizable=1;rotatable=1;deletable=1;editable=1;locked=0;connectable=1;fillColor=#ffe6cc;strokeColor=#d79b00;" vertex="1" parent="QoQSe-H3zC9wJc1rApx4-160">
          <mxGeometry width="250" height="250" as="geometry" />
        </mxCell>
        <mxCell id="QoQSe-H3zC9wJc1rApx4-162" value="ワーク参加者" style="shape=umlActor;verticalLabelPosition=bottom;verticalAlign=top;html=1;outlineConnect=0;movable=1;resizable=1;rotatable=1;deletable=1;editable=1;locked=0;connectable=1;" vertex="1" parent="QoQSe-H3zC9wJc1rApx4-160">
          <mxGeometry x="60" y="40" width="30" height="60" as="geometry" />
        </mxCell>
        <mxCell id="QoQSe-H3zC9wJc1rApx4-163" value="ワーク参加者" style="shape=umlActor;verticalLabelPosition=bottom;verticalAlign=top;html=1;outlineConnect=0;movable=1;resizable=1;rotatable=1;deletable=1;editable=1;locked=0;connectable=1;" vertex="1" parent="QoQSe-H3zC9wJc1rApx4-160">
          <mxGeometry x="110" y="150" width="30" height="60" as="geometry" />
        </mxCell>
        <mxCell id="QoQSe-H3zC9wJc1rApx4-164" value="ワーク参加者" style="shape=umlActor;verticalLabelPosition=bottom;verticalAlign=top;html=1;outlineConnect=0;movable=1;resizable=1;rotatable=1;deletable=1;editable=1;locked=0;connectable=1;" vertex="1" parent="QoQSe-H3zC9wJc1rApx4-160">
          <mxGeometry x="160" y="40" width="30" height="60" as="geometry" />
        </mxCell>
        <mxCell id="QoQSe-H3zC9wJc1rApx4-165" value="" style="curved=1;endArrow=classic;html=1;rounded=0;entryX=1;entryY=1;entryDx=0;entryDy=0;entryPerimeter=0;strokeWidth=3;fillColor=#f5f5f5;strokeColor=#666666;dashed=1;movable=1;resizable=1;rotatable=1;deletable=1;editable=1;locked=0;connectable=1;" edge="1" parent="QoQSe-H3zC9wJc1rApx4-160">
          <mxGeometry width="50" height="50" relative="1" as="geometry">
            <mxPoint x="300" y="180" as="sourcePoint" />
            <mxPoint x="175" y="160" as="targetPoint" />
            <Array as="points">
              <mxPoint x="235" y="190" />
            </Array>
          </mxGeometry>
        </mxCell>
        <mxCell id="QoQSe-H3zC9wJc1rApx4-166" value="" style="curved=1;endArrow=classic;html=1;rounded=0;fillColor=#f5f5f5;strokeColor=#666666;strokeWidth=3;movable=1;resizable=1;rotatable=1;deletable=1;editable=1;locked=0;connectable=1;entryX=0;entryY=0.3333333333333333;entryDx=0;entryDy=0;entryPerimeter=0;dashed=1;" edge="1" parent="QoQSe-H3zC9wJc1rApx4-160">
          <mxGeometry width="50" height="50" relative="1" as="geometry">
            <mxPoint x="25" y="260" as="sourcePoint" />
            <mxPoint x="70" y="170" as="targetPoint" />
            <Array as="points">
              <mxPoint x="10" y="220" />
              <mxPoint x="40" y="170" />
            </Array>
          </mxGeometry>
        </mxCell>
        <mxCell id="QoQSe-H3zC9wJc1rApx4-167" value="&lt;font style=&quot;font-size: 14px;&quot;&gt;&lt;b&gt;ワーク（現地）&lt;/b&gt;&lt;/font&gt;" style="text;html=1;align=center;verticalAlign=middle;whiteSpace=wrap;rounded=0;movable=1;resizable=1;rotatable=1;deletable=1;editable=1;locked=0;connectable=1;" vertex="1" parent="QoQSe-H3zC9wJc1rApx4-160">
          <mxGeometry x="60" y="250" width="150" height="30" as="geometry" />
        </mxCell>
        <mxCell id="QoQSe-H3zC9wJc1rApx4-81" value="&lt;b style=&quot;&quot;&gt;&lt;font style=&quot;font-size: 24px;&quot;&gt;運動場&lt;/font&gt;&lt;/b&gt;" style="text;html=1;align=center;verticalAlign=middle;whiteSpace=wrap;rounded=0;movable=1;resizable=1;rotatable=1;deletable=1;editable=1;locked=0;connectable=1;" vertex="1" parent="QoQSe-H3zC9wJc1rApx4-229">
          <mxGeometry x="650.63" y="1530" width="218.75" height="40" as="geometry" />
        </mxCell>
        <mxCell id="QoQSe-H3zC9wJc1rApx4-170" value="" style="group;movable=1;resizable=1;rotatable=1;deletable=1;editable=1;locked=0;connectable=1;" connectable="0" vertex="1" parent="QoQSe-H3zC9wJc1rApx4-229">
          <mxGeometry x="29.999999999999886" width="380" height="440" as="geometry" />
        </mxCell>
        <mxCell id="QoQSe-H3zC9wJc1rApx4-173" value="&lt;span style=&quot;color: rgba(0, 0, 0, 0); font-family: monospace; font-size: 0px; text-align: start; text-wrap-mode: nowrap;&quot;&gt;%3CmxGraphModel%3E%3Croot%3E%3CmxCell%20id%3D%220%22%2F%3E%3CmxCell%20id%3D%221%22%20parent%3D%220%22%2F%3E%3CmxCell%20id%3D%222%22%20value%3D%22%22%20style%3D%22curved%3D1%3BendArrow%3Dclassic%3Bhtml%3D1%3Brounded%3D0%3BfillColor%3D%23f5f5f5%3BstrokeColor%3D%23666666%3BstrokeWidth%3D3%3Bmovable%3D1%3Bresizable%3D1%3Brotatable%3D1%3Bdeletable%3D1%3Beditable%3D1%3Blocked%3D0%3Bconnectable%3D1%3BexitX%3D0.5%3BexitY%3D0%3BexitDx%3D0%3BexitDy%3D0%3BexitPerimeter%3D0%3BentryX%3D0%3BentryY%3D0.3333333333333333%3BentryDx%3D0%3BentryDy%3D0%3BentryPerimeter%3D0%3Bdashed%3D1%3B%22%20edge%3D%221%22%20parent%3D%221%22%3E%3CmxGeometry%20width%3D%2250%22%20height%3D%2250%22%20relative%3D%221%22%20as%3D%22geometry%22%3E%3CmxPoint%20x%3D%22645%22%20y%3D%22450%22%20as%3D%22sourcePoint%22%2F%3E%3CmxPoint%20x%3D%22690%22%20y%3D%22320%22%20as%3D%22targetPoint%22%2F%3E%3CArray%20as%3D%22points%22%3E%3CmxPoint%20x%3D%22630%22%20y%3D%22370%22%2F%3E%3CmxPoint%20x%3D%22660%22%20y%3D%22320%22%2F%3E%3C%2FArray%3E%3C%2FmxGeometry%3E%3C%2FmxCell%3E%3C%2Froot%3E%3C%2FmxGraphModel%3E&lt;/span&gt;" style="ellipse;whiteSpace=wrap;html=1;aspect=fixed;movable=1;resizable=1;rotatable=1;deletable=1;editable=1;locked=0;connectable=1;fillColor=#dae8fc;strokeColor=#6c8ebf;" vertex="1" parent="QoQSe-H3zC9wJc1rApx4-170">
          <mxGeometry y="90" width="320" height="320" as="geometry" />
        </mxCell>
        <mxCell id="QoQSe-H3zC9wJc1rApx4-174" value="ワーク参加者" style="shape=umlActor;verticalLabelPosition=bottom;verticalAlign=top;html=1;outlineConnect=0;movable=1;resizable=1;rotatable=1;deletable=1;editable=1;locked=0;connectable=1;" vertex="1" parent="QoQSe-H3zC9wJc1rApx4-170">
          <mxGeometry x="215" y="270" width="30" height="60" as="geometry" />
        </mxCell>
        <mxCell id="QoQSe-H3zC9wJc1rApx4-175" value="ワーク参加者" style="shape=umlActor;verticalLabelPosition=bottom;verticalAlign=top;html=1;outlineConnect=0;movable=1;resizable=1;rotatable=1;deletable=1;editable=1;locked=0;connectable=1;" vertex="1" parent="QoQSe-H3zC9wJc1rApx4-170">
          <mxGeometry x="90" y="150" width="30" height="60" as="geometry" />
        </mxCell>
        <mxCell id="QoQSe-H3zC9wJc1rApx4-176" value="ワーク参加者" style="shape=umlActor;verticalLabelPosition=bottom;verticalAlign=top;html=1;outlineConnect=0;movable=1;resizable=1;rotatable=1;deletable=1;editable=1;locked=0;connectable=1;" vertex="1" parent="QoQSe-H3zC9wJc1rApx4-170">
          <mxGeometry x="190" y="150" width="30" height="60" as="geometry" />
        </mxCell>
        <mxCell id="QoQSe-H3zC9wJc1rApx4-177" value="&lt;font style=&quot;font-size: 14px;&quot;&gt;&lt;b&gt;ワーク（オンライン）&lt;/b&gt;&lt;/font&gt;" style="text;html=1;align=center;verticalAlign=middle;whiteSpace=wrap;rounded=0;movable=1;resizable=1;rotatable=1;deletable=1;editable=1;locked=0;connectable=1;" vertex="1" parent="QoQSe-H3zC9wJc1rApx4-170">
          <mxGeometry x="70" y="410" width="200" height="30" as="geometry" />
        </mxCell>
        <mxCell id="QoQSe-H3zC9wJc1rApx4-178" value="" style="curved=1;endArrow=classic;html=1;rounded=0;strokeWidth=3;fillColor=#f5f5f5;strokeColor=#666666;dashed=1;movable=1;resizable=1;rotatable=1;deletable=1;editable=1;locked=0;connectable=1;" edge="1" parent="QoQSe-H3zC9wJc1rApx4-170">
          <mxGeometry width="50" height="50" relative="1" as="geometry">
            <mxPoint x="360" y="210" as="sourcePoint" />
            <mxPoint x="270" y="220" as="targetPoint" />
            <Array as="points">
              <mxPoint x="330" y="240" />
            </Array>
          </mxGeometry>
        </mxCell>
        <mxCell id="QoQSe-H3zC9wJc1rApx4-179" value="" style="curved=1;endArrow=classic;html=1;rounded=0;fillColor=#f5f5f5;strokeColor=#666666;strokeWidth=3;movable=1;resizable=1;rotatable=1;deletable=1;editable=1;locked=0;connectable=1;entryX=0;entryY=0.3333333333333333;entryDx=0;entryDy=0;entryPerimeter=0;dashed=1;" edge="1" parent="QoQSe-H3zC9wJc1rApx4-170">
          <mxGeometry width="50" height="50" relative="1" as="geometry">
            <mxPoint x="39" y="410" as="sourcePoint" />
            <mxPoint x="84" y="320" as="targetPoint" />
            <Array as="points">
              <mxPoint x="24" y="370" />
              <mxPoint x="54" y="320" />
            </Array>
          </mxGeometry>
        </mxCell>
        <mxCell id="QoQSe-H3zC9wJc1rApx4-180" value="" style="curved=1;endArrow=classic;html=1;rounded=0;fillColor=#f5f5f5;strokeColor=#666666;strokeWidth=3;movable=1;resizable=1;rotatable=1;deletable=1;editable=1;locked=0;connectable=1;dashed=1;" edge="1" parent="QoQSe-H3zC9wJc1rApx4-170">
          <mxGeometry width="50" height="50" relative="1" as="geometry">
            <mxPoint y="20" as="sourcePoint" />
            <mxPoint x="80" y="183.68421052631584" as="targetPoint" />
            <Array as="points">
              <mxPoint y="150" />
            </Array>
          </mxGeometry>
        </mxCell>
        <mxCell id="QoQSe-H3zC9wJc1rApx4-181" value="ワーク参加者" style="shape=umlActor;verticalLabelPosition=bottom;verticalAlign=top;html=1;outlineConnect=0;movable=1;resizable=1;rotatable=1;deletable=1;editable=1;locked=0;connectable=1;" vertex="1" parent="QoQSe-H3zC9wJc1rApx4-170">
          <mxGeometry x="140" y="260" width="30" height="60" as="geometry" />
        </mxCell>
        <mxCell id="QoQSe-H3zC9wJc1rApx4-182" value="ワーク参加者" style="shape=umlActor;verticalLabelPosition=bottom;verticalAlign=top;html=1;outlineConnect=0;movable=1;resizable=1;rotatable=1;deletable=1;editable=1;locked=0;connectable=1;" vertex="1" parent="QoQSe-H3zC9wJc1rApx4-170">
          <mxGeometry x="50" y="250" width="30" height="60" as="geometry" />
        </mxCell>
        <mxCell id="QoQSe-H3zC9wJc1rApx4-213" value="赤の他人" style="shape=umlActor;verticalLabelPosition=bottom;verticalAlign=top;html=1;outlineConnect=0;movable=1;resizable=1;rotatable=1;deletable=1;editable=1;locked=0;connectable=1;" vertex="1" parent="QoQSe-H3zC9wJc1rApx4-170">
          <mxGeometry x="245.0000000000001" y="-10" width="30" height="60" as="geometry" />
        </mxCell>
        <mxCell id="QoQSe-H3zC9wJc1rApx4-186" value="" style="group;movable=1;resizable=1;rotatable=1;deletable=1;editable=1;locked=0;connectable=1;" connectable="0" vertex="1" parent="QoQSe-H3zC9wJc1rApx4-229">
          <mxGeometry x="1055" y="1260" width="380" height="440" as="geometry" />
        </mxCell>
        <mxCell id="QoQSe-H3zC9wJc1rApx4-189" value="&lt;span style=&quot;color: rgba(0, 0, 0, 0); font-family: monospace; font-size: 0px; text-align: start; text-wrap-mode: nowrap;&quot;&gt;%3CmxGraphModel%3E%3Croot%3E%3CmxCell%20id%3D%220%22%2F%3E%3CmxCell%20id%3D%221%22%20parent%3D%220%22%2F%3E%3CmxCell%20id%3D%222%22%20value%3D%22%22%20style%3D%22curved%3D1%3BendArrow%3Dclassic%3Bhtml%3D1%3Brounded%3D0%3BfillColor%3D%23f5f5f5%3BstrokeColor%3D%23666666%3BstrokeWidth%3D3%3Bmovable%3D1%3Bresizable%3D1%3Brotatable%3D1%3Bdeletable%3D1%3Beditable%3D1%3Blocked%3D0%3Bconnectable%3D1%3BexitX%3D0.5%3BexitY%3D0%3BexitDx%3D0%3BexitDy%3D0%3BexitPerimeter%3D0%3BentryX%3D0%3BentryY%3D0.3333333333333333%3BentryDx%3D0%3BentryDy%3D0%3BentryPerimeter%3D0%3Bdashed%3D1%3B%22%20edge%3D%221%22%20parent%3D%221%22%3E%3CmxGeometry%20width%3D%2250%22%20height%3D%2250%22%20relative%3D%221%22%20as%3D%22geometry%22%3E%3CmxPoint%20x%3D%22645%22%20y%3D%22450%22%20as%3D%22sourcePoint%22%2F%3E%3CmxPoint%20x%3D%22690%22%20y%3D%22320%22%20as%3D%22targetPoint%22%2F%3E%3CArray%20as%3D%22points%22%3E%3CmxPoint%20x%3D%22630%22%20y%3D%22370%22%2F%3E%3CmxPoint%20x%3D%22660%22%20y%3D%22320%22%2F%3E%3C%2FArray%3E%3C%2FmxGeometry%3E%3C%2FmxCell%3E%3C%2Froot%3E%3C%2FmxGraphModel%3E&lt;/span&gt;" style="ellipse;whiteSpace=wrap;html=1;aspect=fixed;movable=1;resizable=1;rotatable=1;deletable=1;editable=1;locked=0;connectable=1;fillColor=#dae8fc;strokeColor=#6c8ebf;" vertex="1" parent="QoQSe-H3zC9wJc1rApx4-186">
          <mxGeometry y="90" width="320" height="320" as="geometry" />
        </mxCell>
        <mxCell id="QoQSe-H3zC9wJc1rApx4-190" value="ワーク参加者" style="shape=umlActor;verticalLabelPosition=bottom;verticalAlign=top;html=1;outlineConnect=0;movable=1;resizable=1;rotatable=1;deletable=1;editable=1;locked=0;connectable=1;" vertex="1" parent="QoQSe-H3zC9wJc1rApx4-186">
          <mxGeometry x="215" y="270" width="30" height="60" as="geometry" />
        </mxCell>
        <mxCell id="QoQSe-H3zC9wJc1rApx4-191" value="ワーク参加者" style="shape=umlActor;verticalLabelPosition=bottom;verticalAlign=top;html=1;outlineConnect=0;movable=1;resizable=1;rotatable=1;deletable=1;editable=1;locked=0;connectable=1;" vertex="1" parent="QoQSe-H3zC9wJc1rApx4-186">
          <mxGeometry x="90" y="150" width="30" height="60" as="geometry" />
        </mxCell>
        <mxCell id="QoQSe-H3zC9wJc1rApx4-192" value="ワーク参加者" style="shape=umlActor;verticalLabelPosition=bottom;verticalAlign=top;html=1;outlineConnect=0;movable=1;resizable=1;rotatable=1;deletable=1;editable=1;locked=0;connectable=1;" vertex="1" parent="QoQSe-H3zC9wJc1rApx4-186">
          <mxGeometry x="190" y="150" width="30" height="60" as="geometry" />
        </mxCell>
        <mxCell id="QoQSe-H3zC9wJc1rApx4-193" value="&lt;font style=&quot;font-size: 14px;&quot;&gt;&lt;b&gt;ワーク（オンライン）&lt;/b&gt;&lt;/font&gt;" style="text;html=1;align=center;verticalAlign=middle;whiteSpace=wrap;rounded=0;movable=1;resizable=1;rotatable=1;deletable=1;editable=1;locked=0;connectable=1;" vertex="1" parent="QoQSe-H3zC9wJc1rApx4-186">
          <mxGeometry x="77" y="410" width="205" height="30" as="geometry" />
        </mxCell>
        <mxCell id="QoQSe-H3zC9wJc1rApx4-194" value="" style="curved=1;endArrow=classic;html=1;rounded=0;strokeWidth=3;fillColor=#f5f5f5;strokeColor=#666666;dashed=1;movable=1;resizable=1;rotatable=1;deletable=1;editable=1;locked=0;connectable=1;" edge="1" parent="QoQSe-H3zC9wJc1rApx4-186">
          <mxGeometry width="50" height="50" relative="1" as="geometry">
            <mxPoint x="360" y="210" as="sourcePoint" />
            <mxPoint x="270" y="220" as="targetPoint" />
            <Array as="points">
              <mxPoint x="330" y="240" />
            </Array>
          </mxGeometry>
        </mxCell>
        <mxCell id="QoQSe-H3zC9wJc1rApx4-195" value="" style="curved=1;endArrow=classic;html=1;rounded=0;fillColor=#f5f5f5;strokeColor=#666666;strokeWidth=3;movable=1;resizable=1;rotatable=1;deletable=1;editable=1;locked=0;connectable=1;entryX=0;entryY=0.3333333333333333;entryDx=0;entryDy=0;entryPerimeter=0;dashed=1;" edge="1" parent="QoQSe-H3zC9wJc1rApx4-186">
          <mxGeometry width="50" height="50" relative="1" as="geometry">
            <mxPoint x="39" y="410" as="sourcePoint" />
            <mxPoint x="84" y="320" as="targetPoint" />
            <Array as="points">
              <mxPoint x="24" y="370" />
              <mxPoint x="54" y="320" />
            </Array>
          </mxGeometry>
        </mxCell>
        <mxCell id="QoQSe-H3zC9wJc1rApx4-196" value="" style="curved=1;endArrow=classic;html=1;rounded=0;fillColor=#f5f5f5;strokeColor=#666666;strokeWidth=3;movable=1;resizable=1;rotatable=1;deletable=1;editable=1;locked=0;connectable=1;dashed=1;" edge="1" parent="QoQSe-H3zC9wJc1rApx4-186">
          <mxGeometry width="50" height="50" relative="1" as="geometry">
            <mxPoint y="20" as="sourcePoint" />
            <mxPoint x="80" y="183.68421052631584" as="targetPoint" />
            <Array as="points">
              <mxPoint y="150" />
            </Array>
          </mxGeometry>
        </mxCell>
        <mxCell id="QoQSe-H3zC9wJc1rApx4-197" value="ワーク参加者" style="shape=umlActor;verticalLabelPosition=bottom;verticalAlign=top;html=1;outlineConnect=0;movable=1;resizable=1;rotatable=1;deletable=1;editable=1;locked=0;connectable=1;" vertex="1" parent="QoQSe-H3zC9wJc1rApx4-186">
          <mxGeometry x="140" y="260" width="30" height="60" as="geometry" />
        </mxCell>
        <mxCell id="QoQSe-H3zC9wJc1rApx4-198" value="ワーク参加者" style="shape=umlActor;verticalLabelPosition=bottom;verticalAlign=top;html=1;outlineConnect=0;movable=1;resizable=1;rotatable=1;deletable=1;editable=1;locked=0;connectable=1;" vertex="1" parent="QoQSe-H3zC9wJc1rApx4-186">
          <mxGeometry x="50" y="250" width="30" height="60" as="geometry" />
        </mxCell>
        <mxCell id="QoQSe-H3zC9wJc1rApx4-205" value="赤の他人" style="shape=umlActor;verticalLabelPosition=bottom;verticalAlign=top;html=1;outlineConnect=0;movable=1;resizable=1;rotatable=1;deletable=1;editable=1;locked=0;connectable=1;" vertex="1" parent="QoQSe-H3zC9wJc1rApx4-229">
          <mxGeometry x="1505" y="390" width="30" height="60" as="geometry" />
        </mxCell>
        <mxCell id="QoQSe-H3zC9wJc1rApx4-206" value="赤の他人" style="shape=umlActor;verticalLabelPosition=bottom;verticalAlign=top;html=1;outlineConnect=0;movable=1;resizable=1;rotatable=1;deletable=1;editable=1;locked=0;connectable=1;" vertex="1" parent="QoQSe-H3zC9wJc1rApx4-229">
          <mxGeometry x="1585" y="530" width="30" height="60" as="geometry" />
        </mxCell>
        <mxCell id="QoQSe-H3zC9wJc1rApx4-200" value="ワーク観覧者" style="shape=umlActor;verticalLabelPosition=bottom;verticalAlign=top;html=1;outlineConnect=0;movable=1;resizable=1;rotatable=1;deletable=1;editable=1;locked=0;connectable=1;" vertex="1" parent="QoQSe-H3zC9wJc1rApx4-229">
          <mxGeometry x="155" y="460" width="30" height="60" as="geometry" />
        </mxCell>
        <mxCell id="QoQSe-H3zC9wJc1rApx4-172" value="ワーク観覧者" style="shape=umlActor;verticalLabelPosition=bottom;verticalAlign=top;html=1;outlineConnect=0;movable=1;resizable=1;rotatable=1;deletable=1;editable=1;locked=0;connectable=1;" vertex="1" parent="QoQSe-H3zC9wJc1rApx4-229">
          <mxGeometry x="404.9999999999999" y="110" width="30" height="60" as="geometry" />
        </mxCell>
        <mxCell id="QoQSe-H3zC9wJc1rApx4-220" value="赤の他人" style="shape=umlActor;verticalLabelPosition=bottom;verticalAlign=top;html=1;outlineConnect=0;movable=1;resizable=1;rotatable=1;deletable=1;editable=1;locked=0;connectable=1;" vertex="1" parent="QoQSe-H3zC9wJc1rApx4-229">
          <mxGeometry x="1605" y="960" width="30" height="60" as="geometry" />
        </mxCell>
        <mxCell id="QoQSe-H3zC9wJc1rApx4-221" value="赤の他人" style="shape=umlActor;verticalLabelPosition=bottom;verticalAlign=top;html=1;outlineConnect=0;movable=1;resizable=1;rotatable=1;deletable=1;editable=1;locked=0;connectable=1;" vertex="1" parent="QoQSe-H3zC9wJc1rApx4-229">
          <mxGeometry x="1425" y="1540" width="30" height="60" as="geometry" />
        </mxCell>
        <mxCell id="QoQSe-H3zC9wJc1rApx4-222" value="赤の他人" style="shape=umlActor;verticalLabelPosition=bottom;verticalAlign=top;html=1;outlineConnect=0;movable=1;resizable=1;rotatable=1;deletable=1;editable=1;locked=0;connectable=1;" vertex="1" parent="QoQSe-H3zC9wJc1rApx4-229">
          <mxGeometry x="1015" y="1670" width="30" height="60" as="geometry" />
        </mxCell>
        <mxCell id="QoQSe-H3zC9wJc1rApx4-223" value="赤の他人" style="shape=umlActor;verticalLabelPosition=bottom;verticalAlign=top;html=1;outlineConnect=0;movable=1;resizable=1;rotatable=1;deletable=1;editable=1;locked=0;connectable=1;" vertex="1" parent="QoQSe-H3zC9wJc1rApx4-229">
          <mxGeometry x="1132" y="1720" width="30" height="60" as="geometry" />
        </mxCell>
        <mxCell id="QoQSe-H3zC9wJc1rApx4-225" value="赤の他人" style="shape=umlActor;verticalLabelPosition=bottom;verticalAlign=top;html=1;outlineConnect=0;movable=1;resizable=1;rotatable=1;deletable=1;editable=1;locked=0;connectable=1;" vertex="1" parent="QoQSe-H3zC9wJc1rApx4-229">
          <mxGeometry x="75" y="1410" width="30" height="60" as="geometry" />
        </mxCell>
        <mxCell id="QoQSe-H3zC9wJc1rApx4-226" value="赤の他人" style="shape=umlActor;verticalLabelPosition=bottom;verticalAlign=top;html=1;outlineConnect=0;movable=1;resizable=1;rotatable=1;deletable=1;editable=1;locked=0;connectable=1;" vertex="1" parent="QoQSe-H3zC9wJc1rApx4-229">
          <mxGeometry x="5" y="1260" width="30" height="60" as="geometry" />
        </mxCell>
        <mxCell id="QoQSe-H3zC9wJc1rApx4-29" value="&lt;b style=&quot;font-size: 14px;&quot;&gt;ワーク（オンライン）&lt;/b&gt;" style="text;html=1;align=center;verticalAlign=middle;whiteSpace=wrap;rounded=0;movable=1;resizable=1;rotatable=1;deletable=1;editable=1;locked=0;connectable=1;" vertex="1" parent="QoQSe-H3zC9wJc1rApx4-229">
          <mxGeometry x="725" y="1310" width="210" height="30" as="geometry" />
        </mxCell>
        <mxCell id="QoQSe-H3zC9wJc1rApx4-103" value="&lt;font style=&quot;font-size: 14px;&quot;&gt;&lt;b&gt;ワーク（オンライン）&lt;/b&gt;&lt;/font&gt;" style="text;html=1;align=center;verticalAlign=middle;whiteSpace=wrap;rounded=0;movable=1;resizable=1;rotatable=1;deletable=1;editable=1;locked=0;connectable=1;" vertex="1" parent="QoQSe-H3zC9wJc1rApx4-229">
          <mxGeometry x="954.9999999999999" y="360" width="190" height="30" as="geometry" />
        </mxCell>
        <mxCell id="QoQSe-H3zC9wJc1rApx4-17" value="" style="group;movable=1;resizable=1;rotatable=1;deletable=1;editable=1;locked=0;connectable=1;" connectable="0" vertex="1" parent="1">
          <mxGeometry x="40" y="110" width="250" height="290" as="geometry" />
        </mxCell>
        <mxCell id="QoQSe-H3zC9wJc1rApx4-10" value="&lt;span style=&quot;color: rgba(0, 0, 0, 0); font-family: monospace; font-size: 0px; text-align: start; text-wrap-mode: nowrap;&quot;&gt;%3CmxGraphModel%3E%3Croot%3E%3CmxCell%20id%3D%220%22%2F%3E%3CmxCell%20id%3D%221%22%20parent%3D%220%22%2F%3E%3CmxCell%20id%3D%222%22%20value%3D%22%22%20style%3D%22curved%3D1%3BendArrow%3Dclassic%3Bhtml%3D1%3Brounded%3D0%3BfillColor%3D%23f5f5f5%3BstrokeColor%3D%23666666%3BstrokeWidth%3D3%3Bmovable%3D1%3Bresizable%3D1%3Brotatable%3D1%3Bdeletable%3D1%3Beditable%3D1%3Blocked%3D0%3Bconnectable%3D1%3BexitX%3D0.5%3BexitY%3D0%3BexitDx%3D0%3BexitDy%3D0%3BexitPerimeter%3D0%3BentryX%3D0%3BentryY%3D0.3333333333333333%3BentryDx%3D0%3BentryDy%3D0%3BentryPerimeter%3D0%3Bdashed%3D1%3B%22%20edge%3D%221%22%20parent%3D%221%22%3E%3CmxGeometry%20width%3D%2250%22%20height%3D%2250%22%20relative%3D%221%22%20as%3D%22geometry%22%3E%3CmxPoint%20x%3D%22645%22%20y%3D%22450%22%20as%3D%22sourcePoint%22%2F%3E%3CmxPoint%20x%3D%22690%22%20y%3D%22320%22%20as%3D%22targetPoint%22%2F%3E%3CArray%20as%3D%22points%22%3E%3CmxPoint%20x%3D%22630%22%20y%3D%22370%22%2F%3E%3CmxPoint%20x%3D%22660%22%20y%3D%22320%22%2F%3E%3C%2FArray%3E%3C%2FmxGeometry%3E%3C%2FmxCell%3E%3C%2Froot%3E%3C%2FmxGraphModel%3E&lt;/span&gt;" style="ellipse;whiteSpace=wrap;html=1;aspect=fixed;movable=1;resizable=1;rotatable=1;deletable=1;editable=1;locked=0;connectable=1;fillColor=#ffe6cc;strokeColor=#d79b00;" vertex="1" parent="QoQSe-H3zC9wJc1rApx4-17">
          <mxGeometry width="250" height="250" as="geometry" />
        </mxCell>
        <mxCell id="QoQSe-H3zC9wJc1rApx4-11" value="ワーク参加者" style="shape=umlActor;verticalLabelPosition=bottom;verticalAlign=top;html=1;outlineConnect=0;movable=1;resizable=1;rotatable=1;deletable=1;editable=1;locked=0;connectable=1;" vertex="1" parent="QoQSe-H3zC9wJc1rApx4-17">
          <mxGeometry x="60" y="40" width="30" height="60" as="geometry" />
        </mxCell>
        <mxCell id="QoQSe-H3zC9wJc1rApx4-12" value="ワーク参加者" style="shape=umlActor;verticalLabelPosition=bottom;verticalAlign=top;html=1;outlineConnect=0;movable=1;resizable=1;rotatable=1;deletable=1;editable=1;locked=0;connectable=1;" vertex="1" parent="QoQSe-H3zC9wJc1rApx4-17">
          <mxGeometry x="110" y="150" width="30" height="60" as="geometry" />
        </mxCell>
        <mxCell id="QoQSe-H3zC9wJc1rApx4-13" value="ワーク参加者" style="shape=umlActor;verticalLabelPosition=bottom;verticalAlign=top;html=1;outlineConnect=0;movable=1;resizable=1;rotatable=1;deletable=1;editable=1;locked=0;connectable=1;" vertex="1" parent="QoQSe-H3zC9wJc1rApx4-17">
          <mxGeometry x="160" y="40" width="30" height="60" as="geometry" />
        </mxCell>
        <mxCell id="QoQSe-H3zC9wJc1rApx4-14" value="" style="curved=1;endArrow=classic;html=1;rounded=0;entryX=1;entryY=1;entryDx=0;entryDy=0;entryPerimeter=0;strokeWidth=3;fillColor=#f5f5f5;strokeColor=#666666;dashed=1;movable=1;resizable=1;rotatable=1;deletable=1;editable=1;locked=0;connectable=1;" edge="1" parent="QoQSe-H3zC9wJc1rApx4-17">
          <mxGeometry width="50" height="50" relative="1" as="geometry">
            <mxPoint x="300" y="180" as="sourcePoint" />
            <mxPoint x="175" y="160" as="targetPoint" />
            <Array as="points">
              <mxPoint x="235" y="190" />
            </Array>
          </mxGeometry>
        </mxCell>
        <mxCell id="QoQSe-H3zC9wJc1rApx4-15" value="" style="curved=1;endArrow=classic;html=1;rounded=0;fillColor=#f5f5f5;strokeColor=#666666;strokeWidth=3;movable=1;resizable=1;rotatable=1;deletable=1;editable=1;locked=0;connectable=1;entryX=0;entryY=0.3333333333333333;entryDx=0;entryDy=0;entryPerimeter=0;dashed=1;" edge="1" parent="QoQSe-H3zC9wJc1rApx4-17">
          <mxGeometry width="50" height="50" relative="1" as="geometry">
            <mxPoint x="25" y="260" as="sourcePoint" />
            <mxPoint x="70" y="170" as="targetPoint" />
            <Array as="points">
              <mxPoint x="10" y="220" />
              <mxPoint x="40" y="170" />
            </Array>
          </mxGeometry>
        </mxCell>
        <mxCell id="QoQSe-H3zC9wJc1rApx4-16" value="&lt;font style=&quot;font-size: 14px;&quot;&gt;&lt;b&gt;ワーク（現地）&lt;/b&gt;&lt;/font&gt;" style="text;html=1;align=center;verticalAlign=middle;whiteSpace=wrap;rounded=0;movable=1;resizable=1;rotatable=1;deletable=1;editable=1;locked=0;connectable=1;" vertex="1" parent="QoQSe-H3zC9wJc1rApx4-17">
          <mxGeometry x="60" y="250" width="130" height="30" as="geometry" />
        </mxCell>
        <mxCell id="QoQSe-H3zC9wJc1rApx4-19" value="" style="curved=1;endArrow=classic;html=1;rounded=0;strokeWidth=3;fillColor=#f5f5f5;strokeColor=#666666;dashed=1;movable=1;resizable=1;rotatable=1;deletable=1;editable=1;locked=0;connectable=1;" edge="1" parent="1">
          <mxGeometry width="50" height="50" relative="1" as="geometry">
            <mxPoint x="190" y="60" as="sourcePoint" />
            <mxPoint x="150" y="150" as="targetPoint" />
            <Array as="points">
              <mxPoint x="140" y="70" />
            </Array>
          </mxGeometry>
        </mxCell>
        <mxCell id="QoQSe-H3zC9wJc1rApx4-23" value="ワーク参加者" style="shape=umlActor;verticalLabelPosition=bottom;verticalAlign=top;html=1;outlineConnect=0;movable=1;resizable=1;rotatable=1;deletable=1;editable=1;locked=0;connectable=1;" vertex="1" parent="1">
          <mxGeometry x="450" y="600" width="30" height="60" as="geometry" />
        </mxCell>
        <mxCell id="QoQSe-H3zC9wJc1rApx4-25" value="ワーク参加者" style="shape=umlActor;verticalLabelPosition=bottom;verticalAlign=top;html=1;outlineConnect=0;movable=1;resizable=1;rotatable=1;deletable=1;editable=1;locked=0;connectable=1;" vertex="1" parent="1">
          <mxGeometry x="550" y="600" width="30" height="60" as="geometry" />
        </mxCell>
        <mxCell id="QoQSe-H3zC9wJc1rApx4-30" value="" style="curved=1;endArrow=classic;html=1;rounded=0;strokeWidth=3;fillColor=#f5f5f5;strokeColor=#666666;dashed=1;movable=1;resizable=1;rotatable=1;deletable=1;editable=1;locked=0;connectable=1;" edge="1" parent="1">
          <mxGeometry width="50" height="50" relative="1" as="geometry">
            <mxPoint x="720" y="660" as="sourcePoint" />
            <mxPoint x="630" y="670" as="targetPoint" />
            <Array as="points">
              <mxPoint x="690" y="690" />
            </Array>
          </mxGeometry>
        </mxCell>
        <mxCell id="QoQSe-H3zC9wJc1rApx4-31" value="" style="curved=1;endArrow=classic;html=1;rounded=0;fillColor=#f5f5f5;strokeColor=#666666;strokeWidth=3;movable=1;resizable=1;rotatable=1;deletable=1;editable=1;locked=0;connectable=1;entryX=0;entryY=0.3333333333333333;entryDx=0;entryDy=0;entryPerimeter=0;dashed=1;" edge="1" parent="1">
          <mxGeometry width="50" height="50" relative="1" as="geometry">
            <mxPoint x="399" y="860" as="sourcePoint" />
            <mxPoint x="444" y="770" as="targetPoint" />
            <Array as="points">
              <mxPoint x="384" y="820" />
              <mxPoint x="414" y="770" />
            </Array>
          </mxGeometry>
        </mxCell>
        <mxCell id="QoQSe-H3zC9wJc1rApx4-32" value="" style="curved=1;endArrow=classic;html=1;rounded=0;fillColor=#f5f5f5;strokeColor=#666666;strokeWidth=3;movable=1;resizable=1;rotatable=1;deletable=1;editable=1;locked=0;connectable=1;dashed=1;" edge="1" parent="1">
          <mxGeometry width="50" height="50" relative="1" as="geometry">
            <mxPoint x="360" y="470" as="sourcePoint" />
            <mxPoint x="440" y="633.6842105263158" as="targetPoint" />
            <Array as="points">
              <mxPoint x="360" y="600" />
            </Array>
          </mxGeometry>
        </mxCell>
        <mxCell id="QoQSe-H3zC9wJc1rApx4-36" value="" style="curved=1;endArrow=classic;html=1;rounded=0;entryX=1;entryY=1;entryDx=0;entryDy=0;entryPerimeter=0;strokeWidth=3;fillColor=#f5f5f5;strokeColor=#666666;dashed=1;movable=1;resizable=1;rotatable=1;deletable=1;editable=1;locked=0;connectable=1;" edge="1" parent="1">
          <mxGeometry width="50" height="50" relative="1" as="geometry">
            <mxPoint x="820" y="230" as="sourcePoint" />
            <mxPoint x="730" y="250" as="targetPoint" />
            <Array as="points" />
          </mxGeometry>
        </mxCell>
        <mxCell id="QoQSe-H3zC9wJc1rApx4-39" value="ワーク参加者" style="shape=umlActor;verticalLabelPosition=bottom;verticalAlign=top;html=1;outlineConnect=0;movable=1;resizable=1;rotatable=1;deletable=1;editable=1;locked=0;connectable=1;" vertex="1" parent="1">
          <mxGeometry x="500" y="710" width="30" height="60" as="geometry" />
        </mxCell>
        <mxCell id="QoQSe-H3zC9wJc1rApx4-40" value="ワーク参加者" style="shape=umlActor;verticalLabelPosition=bottom;verticalAlign=top;html=1;outlineConnect=0;movable=1;resizable=1;rotatable=1;deletable=1;editable=1;locked=0;connectable=1;" vertex="1" parent="1">
          <mxGeometry x="410" y="700" width="30" height="60" as="geometry" />
        </mxCell>
        <mxCell id="QoQSe-H3zC9wJc1rApx4-95" value="" style="group;movable=1;resizable=1;rotatable=1;deletable=1;editable=1;locked=0;connectable=1;" connectable="0" vertex="1" parent="1">
          <mxGeometry x="-220.0000000000001" y="520" width="380" height="440" as="geometry" />
        </mxCell>
        <mxCell id="QoQSe-H3zC9wJc1rApx4-84" value="ワーク観覧者" style="shape=umlActor;verticalLabelPosition=bottom;verticalAlign=top;html=1;outlineConnect=0;movable=1;resizable=1;rotatable=1;deletable=1;editable=1;locked=0;connectable=1;" vertex="1" parent="QoQSe-H3zC9wJc1rApx4-95">
          <mxGeometry x="350" y="100" width="30" height="60" as="geometry" />
        </mxCell>
        <mxCell id="QoQSe-H3zC9wJc1rApx4-85" value="&lt;span style=&quot;color: rgba(0, 0, 0, 0); font-family: monospace; font-size: 0px; text-align: start; text-wrap-mode: nowrap;&quot;&gt;%3CmxGraphModel%3E%3Croot%3E%3CmxCell%20id%3D%220%22%2F%3E%3CmxCell%20id%3D%221%22%20parent%3D%220%22%2F%3E%3CmxCell%20id%3D%222%22%20value%3D%22%22%20style%3D%22curved%3D1%3BendArrow%3Dclassic%3Bhtml%3D1%3Brounded%3D0%3BfillColor%3D%23f5f5f5%3BstrokeColor%3D%23666666%3BstrokeWidth%3D3%3Bmovable%3D1%3Bresizable%3D1%3Brotatable%3D1%3Bdeletable%3D1%3Beditable%3D1%3Blocked%3D0%3Bconnectable%3D1%3BexitX%3D0.5%3BexitY%3D0%3BexitDx%3D0%3BexitDy%3D0%3BexitPerimeter%3D0%3BentryX%3D0%3BentryY%3D0.3333333333333333%3BentryDx%3D0%3BentryDy%3D0%3BentryPerimeter%3D0%3Bdashed%3D1%3B%22%20edge%3D%221%22%20parent%3D%221%22%3E%3CmxGeometry%20width%3D%2250%22%20height%3D%2250%22%20relative%3D%221%22%20as%3D%22geometry%22%3E%3CmxPoint%20x%3D%22645%22%20y%3D%22450%22%20as%3D%22sourcePoint%22%2F%3E%3CmxPoint%20x%3D%22690%22%20y%3D%22320%22%20as%3D%22targetPoint%22%2F%3E%3CArray%20as%3D%22points%22%3E%3CmxPoint%20x%3D%22630%22%20y%3D%22370%22%2F%3E%3CmxPoint%20x%3D%22660%22%20y%3D%22320%22%2F%3E%3C%2FArray%3E%3C%2FmxGeometry%3E%3C%2FmxCell%3E%3C%2Froot%3E%3C%2FmxGraphModel%3E&lt;/span&gt;" style="ellipse;whiteSpace=wrap;html=1;aspect=fixed;movable=1;resizable=1;rotatable=1;deletable=1;editable=1;locked=0;connectable=1;fillColor=#dae8fc;strokeColor=#6c8ebf;" vertex="1" parent="QoQSe-H3zC9wJc1rApx4-95">
          <mxGeometry y="90" width="320" height="320" as="geometry" />
        </mxCell>
        <mxCell id="QoQSe-H3zC9wJc1rApx4-86" value="ワーク参加者" style="shape=umlActor;verticalLabelPosition=bottom;verticalAlign=top;html=1;outlineConnect=0;movable=1;resizable=1;rotatable=1;deletable=1;editable=1;locked=0;connectable=1;" vertex="1" parent="QoQSe-H3zC9wJc1rApx4-95">
          <mxGeometry x="215" y="270" width="30" height="60" as="geometry" />
        </mxCell>
        <mxCell id="QoQSe-H3zC9wJc1rApx4-87" value="ワーク参加者" style="shape=umlActor;verticalLabelPosition=bottom;verticalAlign=top;html=1;outlineConnect=0;movable=1;resizable=1;rotatable=1;deletable=1;editable=1;locked=0;connectable=1;" vertex="1" parent="QoQSe-H3zC9wJc1rApx4-95">
          <mxGeometry x="90" y="150" width="30" height="60" as="geometry" />
        </mxCell>
        <mxCell id="QoQSe-H3zC9wJc1rApx4-88" value="ワーク参加者" style="shape=umlActor;verticalLabelPosition=bottom;verticalAlign=top;html=1;outlineConnect=0;movable=1;resizable=1;rotatable=1;deletable=1;editable=1;locked=0;connectable=1;" vertex="1" parent="QoQSe-H3zC9wJc1rApx4-95">
          <mxGeometry x="190" y="150" width="30" height="60" as="geometry" />
        </mxCell>
        <mxCell id="QoQSe-H3zC9wJc1rApx4-89" value="&lt;b style=&quot;font-size: 14px;&quot;&gt;ワーク（オンライン）&lt;/b&gt;" style="text;html=1;align=center;verticalAlign=middle;whiteSpace=wrap;rounded=0;movable=1;resizable=1;rotatable=1;deletable=1;editable=1;locked=0;connectable=1;" vertex="1" parent="QoQSe-H3zC9wJc1rApx4-95">
          <mxGeometry x="60" y="410" width="200" height="30" as="geometry" />
        </mxCell>
        <mxCell id="QoQSe-H3zC9wJc1rApx4-90" value="" style="curved=1;endArrow=classic;html=1;rounded=0;strokeWidth=3;fillColor=#f5f5f5;strokeColor=#666666;dashed=1;movable=1;resizable=1;rotatable=1;deletable=1;editable=1;locked=0;connectable=1;" edge="1" parent="QoQSe-H3zC9wJc1rApx4-95">
          <mxGeometry width="50" height="50" relative="1" as="geometry">
            <mxPoint x="360" y="210" as="sourcePoint" />
            <mxPoint x="270" y="220" as="targetPoint" />
            <Array as="points">
              <mxPoint x="330" y="240" />
            </Array>
          </mxGeometry>
        </mxCell>
        <mxCell id="QoQSe-H3zC9wJc1rApx4-91" value="" style="curved=1;endArrow=classic;html=1;rounded=0;fillColor=#f5f5f5;strokeColor=#666666;strokeWidth=3;movable=1;resizable=1;rotatable=1;deletable=1;editable=1;locked=0;connectable=1;entryX=0;entryY=0.3333333333333333;entryDx=0;entryDy=0;entryPerimeter=0;dashed=1;" edge="1" parent="QoQSe-H3zC9wJc1rApx4-95">
          <mxGeometry width="50" height="50" relative="1" as="geometry">
            <mxPoint x="39" y="410" as="sourcePoint" />
            <mxPoint x="84" y="320" as="targetPoint" />
            <Array as="points">
              <mxPoint x="24" y="370" />
              <mxPoint x="54" y="320" />
            </Array>
          </mxGeometry>
        </mxCell>
        <mxCell id="QoQSe-H3zC9wJc1rApx4-92" value="" style="curved=1;endArrow=classic;html=1;rounded=0;fillColor=#f5f5f5;strokeColor=#666666;strokeWidth=3;movable=1;resizable=1;rotatable=1;deletable=1;editable=1;locked=0;connectable=1;dashed=1;" edge="1" parent="QoQSe-H3zC9wJc1rApx4-95">
          <mxGeometry width="50" height="50" relative="1" as="geometry">
            <mxPoint y="20" as="sourcePoint" />
            <mxPoint x="80" y="183.68421052631584" as="targetPoint" />
            <Array as="points">
              <mxPoint y="150" />
            </Array>
          </mxGeometry>
        </mxCell>
        <mxCell id="QoQSe-H3zC9wJc1rApx4-93" value="ワーク参加者" style="shape=umlActor;verticalLabelPosition=bottom;verticalAlign=top;html=1;outlineConnect=0;movable=1;resizable=1;rotatable=1;deletable=1;editable=1;locked=0;connectable=1;" vertex="1" parent="QoQSe-H3zC9wJc1rApx4-95">
          <mxGeometry x="140" y="260" width="30" height="60" as="geometry" />
        </mxCell>
        <mxCell id="QoQSe-H3zC9wJc1rApx4-94" value="ワーク参加者" style="shape=umlActor;verticalLabelPosition=bottom;verticalAlign=top;html=1;outlineConnect=0;movable=1;resizable=1;rotatable=1;deletable=1;editable=1;locked=0;connectable=1;" vertex="1" parent="QoQSe-H3zC9wJc1rApx4-95">
          <mxGeometry x="50" y="250" width="30" height="60" as="geometry" />
        </mxCell>
        <mxCell id="QoQSe-H3zC9wJc1rApx4-145" value="ワーク観覧者" style="shape=umlActor;verticalLabelPosition=bottom;verticalAlign=top;html=1;outlineConnect=0;movable=1;resizable=1;rotatable=1;deletable=1;editable=1;locked=0;connectable=1;" vertex="1" parent="QoQSe-H3zC9wJc1rApx4-95">
          <mxGeometry x="145.0000000000001" y="-20" width="30" height="60" as="geometry" />
        </mxCell>
        <mxCell id="QoQSe-H3zC9wJc1rApx4-96" value="" style="group;movable=1;resizable=1;rotatable=1;deletable=1;editable=1;locked=0;connectable=1;" connectable="0" vertex="1" parent="1">
          <mxGeometry x="579.9999999999999" y="-500" width="405.0000000000001" height="440" as="geometry" />
        </mxCell>
        <mxCell id="QoQSe-H3zC9wJc1rApx4-99" value="&lt;span style=&quot;color: rgba(0, 0, 0, 0); font-family: monospace; font-size: 0px; text-align: start; text-wrap-mode: nowrap;&quot;&gt;%3CmxGraphModel%3E%3Croot%3E%3CmxCell%20id%3D%220%22%2F%3E%3CmxCell%20id%3D%221%22%20parent%3D%220%22%2F%3E%3CmxCell%20id%3D%222%22%20value%3D%22%22%20style%3D%22curved%3D1%3BendArrow%3Dclassic%3Bhtml%3D1%3Brounded%3D0%3BfillColor%3D%23f5f5f5%3BstrokeColor%3D%23666666%3BstrokeWidth%3D3%3Bmovable%3D1%3Bresizable%3D1%3Brotatable%3D1%3Bdeletable%3D1%3Beditable%3D1%3Blocked%3D0%3Bconnectable%3D1%3BexitX%3D0.5%3BexitY%3D0%3BexitDx%3D0%3BexitDy%3D0%3BexitPerimeter%3D0%3BentryX%3D0%3BentryY%3D0.3333333333333333%3BentryDx%3D0%3BentryDy%3D0%3BentryPerimeter%3D0%3Bdashed%3D1%3B%22%20edge%3D%221%22%20parent%3D%221%22%3E%3CmxGeometry%20width%3D%2250%22%20height%3D%2250%22%20relative%3D%221%22%20as%3D%22geometry%22%3E%3CmxPoint%20x%3D%22645%22%20y%3D%22450%22%20as%3D%22sourcePoint%22%2F%3E%3CmxPoint%20x%3D%22690%22%20y%3D%22320%22%20as%3D%22targetPoint%22%2F%3E%3CArray%20as%3D%22points%22%3E%3CmxPoint%20x%3D%22630%22%20y%3D%22370%22%2F%3E%3CmxPoint%20x%3D%22660%22%20y%3D%22320%22%2F%3E%3C%2FArray%3E%3C%2FmxGeometry%3E%3C%2FmxCell%3E%3C%2Froot%3E%3C%2FmxGraphModel%3E&lt;/span&gt;" style="ellipse;whiteSpace=wrap;html=1;aspect=fixed;movable=1;resizable=1;rotatable=1;deletable=1;editable=1;locked=0;connectable=1;fillColor=#dae8fc;strokeColor=#6c8ebf;" vertex="1" parent="QoQSe-H3zC9wJc1rApx4-96">
          <mxGeometry y="90" width="320" height="320" as="geometry" />
        </mxCell>
        <mxCell id="QoQSe-H3zC9wJc1rApx4-100" value="ワーク参加者" style="shape=umlActor;verticalLabelPosition=bottom;verticalAlign=top;html=1;outlineConnect=0;movable=1;resizable=1;rotatable=1;deletable=1;editable=1;locked=0;connectable=1;" vertex="1" parent="QoQSe-H3zC9wJc1rApx4-96">
          <mxGeometry x="215" y="270" width="30" height="60" as="geometry" />
        </mxCell>
        <mxCell id="QoQSe-H3zC9wJc1rApx4-101" value="ワーク参加者" style="shape=umlActor;verticalLabelPosition=bottom;verticalAlign=top;html=1;outlineConnect=0;movable=1;resizable=1;rotatable=1;deletable=1;editable=1;locked=0;connectable=1;" vertex="1" parent="QoQSe-H3zC9wJc1rApx4-96">
          <mxGeometry x="90" y="150" width="30" height="60" as="geometry" />
        </mxCell>
        <mxCell id="QoQSe-H3zC9wJc1rApx4-102" value="ワーク参加者" style="shape=umlActor;verticalLabelPosition=bottom;verticalAlign=top;html=1;outlineConnect=0;movable=1;resizable=1;rotatable=1;deletable=1;editable=1;locked=0;connectable=1;" vertex="1" parent="QoQSe-H3zC9wJc1rApx4-96">
          <mxGeometry x="190" y="150" width="30" height="60" as="geometry" />
        </mxCell>
        <mxCell id="QoQSe-H3zC9wJc1rApx4-104" value="" style="curved=1;endArrow=classic;html=1;rounded=0;strokeWidth=3;fillColor=#f5f5f5;strokeColor=#666666;dashed=1;movable=1;resizable=1;rotatable=1;deletable=1;editable=1;locked=0;connectable=1;" edge="1" parent="QoQSe-H3zC9wJc1rApx4-96">
          <mxGeometry width="50" height="50" relative="1" as="geometry">
            <mxPoint x="360" y="210" as="sourcePoint" />
            <mxPoint x="270" y="220" as="targetPoint" />
            <Array as="points">
              <mxPoint x="330" y="240" />
            </Array>
          </mxGeometry>
        </mxCell>
        <mxCell id="QoQSe-H3zC9wJc1rApx4-105" value="" style="curved=1;endArrow=classic;html=1;rounded=0;fillColor=#f5f5f5;strokeColor=#666666;strokeWidth=3;movable=1;resizable=1;rotatable=1;deletable=1;editable=1;locked=0;connectable=1;entryX=0;entryY=0.3333333333333333;entryDx=0;entryDy=0;entryPerimeter=0;dashed=1;" edge="1" parent="QoQSe-H3zC9wJc1rApx4-96">
          <mxGeometry width="50" height="50" relative="1" as="geometry">
            <mxPoint x="39" y="410" as="sourcePoint" />
            <mxPoint x="84" y="320" as="targetPoint" />
            <Array as="points">
              <mxPoint x="24" y="370" />
              <mxPoint x="54" y="320" />
            </Array>
          </mxGeometry>
        </mxCell>
        <mxCell id="QoQSe-H3zC9wJc1rApx4-106" value="" style="curved=1;endArrow=classic;html=1;rounded=0;fillColor=#f5f5f5;strokeColor=#666666;strokeWidth=3;movable=1;resizable=1;rotatable=1;deletable=1;editable=1;locked=0;connectable=1;dashed=1;" edge="1" parent="QoQSe-H3zC9wJc1rApx4-96">
          <mxGeometry width="50" height="50" relative="1" as="geometry">
            <mxPoint y="20" as="sourcePoint" />
            <mxPoint x="80" y="183.68421052631584" as="targetPoint" />
            <Array as="points">
              <mxPoint y="150" />
            </Array>
          </mxGeometry>
        </mxCell>
        <mxCell id="QoQSe-H3zC9wJc1rApx4-107" value="ワーク参加者" style="shape=umlActor;verticalLabelPosition=bottom;verticalAlign=top;html=1;outlineConnect=0;movable=1;resizable=1;rotatable=1;deletable=1;editable=1;locked=0;connectable=1;" vertex="1" parent="QoQSe-H3zC9wJc1rApx4-96">
          <mxGeometry x="140" y="260" width="30" height="60" as="geometry" />
        </mxCell>
        <mxCell id="QoQSe-H3zC9wJc1rApx4-108" value="ワーク参加者" style="shape=umlActor;verticalLabelPosition=bottom;verticalAlign=top;html=1;outlineConnect=0;movable=1;resizable=1;rotatable=1;deletable=1;editable=1;locked=0;connectable=1;" vertex="1" parent="QoQSe-H3zC9wJc1rApx4-96">
          <mxGeometry x="50" y="250" width="30" height="60" as="geometry" />
        </mxCell>
        <mxCell id="QoQSe-H3zC9wJc1rApx4-214" value="赤の他人" style="shape=umlActor;verticalLabelPosition=bottom;verticalAlign=top;html=1;outlineConnect=0;movable=1;resizable=1;rotatable=1;deletable=1;editable=1;locked=0;connectable=1;" vertex="1" parent="QoQSe-H3zC9wJc1rApx4-96">
          <mxGeometry x="120.00000000000011" y="-30" width="30" height="60" as="geometry" />
        </mxCell>
        <mxCell id="QoQSe-H3zC9wJc1rApx4-168" value="ワーク観覧者" style="shape=umlActor;verticalLabelPosition=bottom;verticalAlign=top;html=1;outlineConnect=0;movable=1;resizable=1;rotatable=1;deletable=1;editable=1;locked=0;connectable=1;" vertex="1" parent="QoQSe-H3zC9wJc1rApx4-96">
          <mxGeometry x="375.0000000000001" y="280" width="30" height="60" as="geometry" />
        </mxCell>
        <mxCell id="QoQSe-H3zC9wJc1rApx4-155" value="" style="curved=1;endArrow=classic;html=1;rounded=0;entryX=1;entryY=1;entryDx=0;entryDy=0;entryPerimeter=0;strokeWidth=3;fillColor=#f5f5f5;strokeColor=#666666;dashed=1;movable=1;resizable=1;rotatable=1;deletable=1;editable=1;locked=0;connectable=1;" edge="1" parent="1">
          <mxGeometry width="50" height="50" relative="1" as="geometry">
            <mxPoint x="700" y="70" as="sourcePoint" />
            <mxPoint x="680" y="150" as="targetPoint" />
            <Array as="points" />
          </mxGeometry>
        </mxCell>
        <mxCell id="QoQSe-H3zC9wJc1rApx4-156" value="" style="curved=1;endArrow=classic;html=1;rounded=0;entryX=1;entryY=1;entryDx=0;entryDy=0;entryPerimeter=0;strokeWidth=3;fillColor=#f5f5f5;strokeColor=#666666;dashed=1;movable=1;resizable=1;rotatable=1;deletable=1;editable=1;locked=0;connectable=1;" edge="1" parent="1">
          <mxGeometry width="50" height="50" relative="1" as="geometry">
            <mxPoint x="1000" y="90" as="sourcePoint" />
            <mxPoint x="881.25" y="170" as="targetPoint" />
            <Array as="points" />
          </mxGeometry>
        </mxCell>
        <mxCell id="QoQSe-H3zC9wJc1rApx4-157" value="" style="curved=1;endArrow=classic;html=1;rounded=0;entryX=1;entryY=1;entryDx=0;entryDy=0;entryPerimeter=0;strokeWidth=3;fillColor=#f5f5f5;strokeColor=#666666;dashed=1;movable=1;resizable=1;rotatable=1;deletable=1;editable=1;locked=0;connectable=1;" edge="1" parent="1">
          <mxGeometry width="50" height="50" relative="1" as="geometry">
            <mxPoint x="1040" y="410" as="sourcePoint" />
            <mxPoint x="910" y="360" as="targetPoint" />
            <Array as="points" />
          </mxGeometry>
        </mxCell>
        <mxCell id="QoQSe-H3zC9wJc1rApx4-212" value="赤の他人" style="shape=umlActor;verticalLabelPosition=bottom;verticalAlign=top;html=1;outlineConnect=0;movable=1;resizable=1;rotatable=1;deletable=1;editable=1;locked=0;connectable=1;" vertex="1" parent="1">
          <mxGeometry x="-380" y="-180" width="30" height="60" as="geometry" />
        </mxCell>
        <mxCell id="QoQSe-H3zC9wJc1rApx4-215" value="赤の他人" style="shape=umlActor;verticalLabelPosition=bottom;verticalAlign=top;html=1;outlineConnect=0;movable=1;resizable=1;rotatable=1;deletable=1;editable=1;locked=0;connectable=1;" vertex="1" parent="1">
          <mxGeometry x="860" y="-530" width="30" height="60" as="geometry" />
        </mxCell>
        <mxCell id="QoQSe-H3zC9wJc1rApx4-217" value="赤の他人" style="shape=umlActor;verticalLabelPosition=bottom;verticalAlign=top;html=1;outlineConnect=0;movable=1;resizable=1;rotatable=1;deletable=1;editable=1;locked=0;connectable=1;" vertex="1" parent="1">
          <mxGeometry x="990" y="-430" width="30" height="60" as="geometry" />
        </mxCell>
        <mxCell id="QoQSe-H3zC9wJc1rApx4-233" value="&lt;b style=&quot;&quot;&gt;&lt;font style=&quot;font-size: 24px;&quot;&gt;公共の場&lt;/font&gt;&lt;/b&gt;" style="text;html=1;align=center;verticalAlign=middle;whiteSpace=wrap;rounded=0;movable=1;resizable=1;rotatable=1;deletable=1;editable=1;locked=0;connectable=1;" vertex="1" parent="1">
          <mxGeometry x="355.63" y="1390" width="218.75" height="40" as="geometry" />
        </mxCell>
      </root>
    </mxGraphModel>
  </diagram>
  <diagram name="ver0.1" id="Pc_uCi_k4K4AXSEXuX1n">
    <mxGraphModel grid="1" page="1" gridSize="10" guides="1" tooltips="1" connect="1" arrows="1" fold="1" pageScale="1" pageWidth="827" pageHeight="1169" math="0" shadow="0">
      <root>
        <mxCell id="0" />
        <mxCell id="1" parent="0" />
        <mxCell id="pPu6R8bAcyK3sgMu2mBe-1" value="" style="group;movable=1;resizable=1;rotatable=1;deletable=1;editable=1;locked=0;connectable=1;" connectable="0" vertex="1" parent="1">
          <mxGeometry x="-317" y="-720" width="1524" height="1564" as="geometry" />
        </mxCell>
        <mxCell id="pPu6R8bAcyK3sgMu2mBe-2" value="" style="ellipse;whiteSpace=wrap;html=1;aspect=fixed;movable=1;resizable=1;rotatable=1;deletable=1;editable=1;locked=0;connectable=1;" vertex="1" parent="pPu6R8bAcyK3sgMu2mBe-1">
          <mxGeometry width="1524" height="1524" as="geometry" />
        </mxCell>
        <mxCell id="pPu6R8bAcyK3sgMu2mBe-3" value="" style="ellipse;whiteSpace=wrap;html=1;aspect=fixed;movable=1;resizable=1;rotatable=1;deletable=1;editable=1;locked=0;connectable=1;" vertex="1" parent="pPu6R8bAcyK3sgMu2mBe-1">
          <mxGeometry x="167" y="260" width="1190" height="1190" as="geometry" />
        </mxCell>
        <mxCell id="pPu6R8bAcyK3sgMu2mBe-4" value="" style="ellipse;whiteSpace=wrap;html=1;aspect=fixed;movable=1;resizable=1;rotatable=1;deletable=1;editable=1;locked=0;connectable=1;" vertex="1" parent="pPu6R8bAcyK3sgMu2mBe-1">
          <mxGeometry x="332" y="520" width="860" height="860" as="geometry" />
        </mxCell>
        <mxCell id="pPu6R8bAcyK3sgMu2mBe-5" value="" style="ellipse;whiteSpace=wrap;html=1;aspect=fixed;movable=1;resizable=1;rotatable=1;deletable=1;editable=1;locked=0;connectable=1;" vertex="1" parent="pPu6R8bAcyK3sgMu2mBe-1">
          <mxGeometry x="457" y="700" width="610" height="610" as="geometry" />
        </mxCell>
        <mxCell id="pPu6R8bAcyK3sgMu2mBe-6" value="" style="group;movable=1;resizable=1;rotatable=1;deletable=1;editable=1;locked=0;connectable=1;" connectable="0" vertex="1" parent="pPu6R8bAcyK3sgMu2mBe-1">
          <mxGeometry x="602" y="910" width="320" height="372" as="geometry" />
        </mxCell>
        <mxCell id="pPu6R8bAcyK3sgMu2mBe-7" value="" style="group;movable=1;resizable=1;rotatable=1;deletable=1;editable=1;locked=0;connectable=1;" connectable="0" vertex="1" parent="pPu6R8bAcyK3sgMu2mBe-6">
          <mxGeometry width="320" height="320" as="geometry" />
        </mxCell>
        <mxCell id="pPu6R8bAcyK3sgMu2mBe-8" value="" style="ellipse;whiteSpace=wrap;html=1;aspect=fixed;movable=1;resizable=1;rotatable=1;deletable=1;editable=1;locked=0;connectable=1;" vertex="1" parent="pPu6R8bAcyK3sgMu2mBe-7">
          <mxGeometry width="320" height="320" as="geometry" />
        </mxCell>
        <mxCell id="pPu6R8bAcyK3sgMu2mBe-9" value="部員" style="shape=umlActor;verticalLabelPosition=bottom;verticalAlign=top;html=1;outlineConnect=0;movable=1;resizable=1;rotatable=1;deletable=1;editable=1;locked=0;connectable=1;" vertex="1" parent="pPu6R8bAcyK3sgMu2mBe-7">
          <mxGeometry x="55" y="170" width="30" height="60" as="geometry" />
        </mxCell>
        <mxCell id="pPu6R8bAcyK3sgMu2mBe-10" value="部員" style="shape=umlActor;verticalLabelPosition=bottom;verticalAlign=top;html=1;outlineConnect=0;movable=1;resizable=1;rotatable=1;deletable=1;editable=1;locked=0;connectable=1;" vertex="1" parent="pPu6R8bAcyK3sgMu2mBe-7">
          <mxGeometry x="145" y="170" width="30" height="60" as="geometry" />
        </mxCell>
        <mxCell id="pPu6R8bAcyK3sgMu2mBe-11" value="ワークリーダー" style="shape=umlActor;verticalLabelPosition=bottom;verticalAlign=top;html=1;outlineConnect=0;movable=1;resizable=1;rotatable=1;deletable=1;editable=1;locked=0;connectable=1;" vertex="1" parent="pPu6R8bAcyK3sgMu2mBe-7">
          <mxGeometry x="145" y="40" width="30" height="60" as="geometry" />
        </mxCell>
        <mxCell id="pPu6R8bAcyK3sgMu2mBe-12" value="部員" style="shape=umlActor;verticalLabelPosition=bottom;verticalAlign=top;html=1;outlineConnect=0;movable=1;resizable=1;rotatable=1;deletable=1;editable=1;locked=0;connectable=1;" vertex="1" parent="pPu6R8bAcyK3sgMu2mBe-7">
          <mxGeometry x="235" y="170" width="30" height="60" as="geometry" />
        </mxCell>
        <mxCell id="pPu6R8bAcyK3sgMu2mBe-13" value="" style="shape=flexArrow;endArrow=classic;html=1;rounded=0;fillColor=#FFE599;width=7.2727272727272725;endSize=5.090909090909091;endWidth=5.19742883379247;movable=1;resizable=1;rotatable=1;deletable=1;editable=1;locked=0;connectable=1;" edge="1" parent="pPu6R8bAcyK3sgMu2mBe-7">
          <mxGeometry width="50" height="50" relative="1" as="geometry">
            <mxPoint x="225" y="200.20999999999998" as="sourcePoint" />
            <mxPoint x="195" y="199.77999999999997" as="targetPoint" />
          </mxGeometry>
        </mxCell>
        <mxCell id="pPu6R8bAcyK3sgMu2mBe-14" value="" style="shape=flexArrow;endArrow=classic;html=1;rounded=0;fillColor=#FFE599;width=7.2727272727272725;endSize=5.090909090909091;endWidth=5.19742883379247;movable=1;resizable=1;rotatable=1;deletable=1;editable=1;locked=0;connectable=1;" edge="1" parent="pPu6R8bAcyK3sgMu2mBe-7">
          <mxGeometry width="50" height="50" relative="1" as="geometry">
            <mxPoint x="128.5" y="200.18" as="sourcePoint" />
            <mxPoint x="98.5" y="199.75" as="targetPoint" />
          </mxGeometry>
        </mxCell>
        <mxCell id="pPu6R8bAcyK3sgMu2mBe-15" value="" style="shape=flexArrow;endArrow=classic;html=1;rounded=0;fillColor=#FFE599;width=7.2727272727272725;endSize=5.090909090909091;endWidth=5.19742883379247;movable=1;resizable=1;rotatable=1;deletable=1;editable=1;locked=0;connectable=1;" edge="1" parent="pPu6R8bAcyK3sgMu2mBe-7">
          <mxGeometry width="50" height="50" relative="1" as="geometry">
            <mxPoint x="85" y="150.43" as="sourcePoint" />
            <mxPoint x="105" y="130" as="targetPoint" />
          </mxGeometry>
        </mxCell>
        <mxCell id="pPu6R8bAcyK3sgMu2mBe-16" value="" style="shape=flexArrow;endArrow=classic;html=1;rounded=0;fillColor=#FFE599;width=7.2727272727272725;endSize=5.090909090909091;endWidth=5.19742883379247;movable=1;resizable=1;rotatable=1;deletable=1;editable=1;locked=0;connectable=1;" edge="1" parent="pPu6R8bAcyK3sgMu2mBe-7">
          <mxGeometry width="50" height="50" relative="1" as="geometry">
            <mxPoint x="215" y="130.43" as="sourcePoint" />
            <mxPoint x="235" y="150" as="targetPoint" />
          </mxGeometry>
        </mxCell>
        <mxCell id="pPu6R8bAcyK3sgMu2mBe-17" value="&lt;span style=&quot;font-size: 14px;&quot;&gt;&lt;b&gt;部室&lt;br&gt;Club Room (Discord / On-site)&lt;/b&gt;&lt;/span&gt;" style="text;html=1;align=center;verticalAlign=middle;whiteSpace=wrap;rounded=0;movable=1;resizable=1;rotatable=1;deletable=1;editable=1;locked=0;connectable=1;" vertex="1" parent="pPu6R8bAcyK3sgMu2mBe-6">
          <mxGeometry x="50.629999999999995" y="320" width="218.75" height="40" as="geometry" />
        </mxCell>
        <mxCell id="pPu6R8bAcyK3sgMu2mBe-18" value="たまに見に来る人" style="shape=umlActor;verticalLabelPosition=bottom;verticalAlign=top;html=1;outlineConnect=0;movable=1;resizable=1;rotatable=1;deletable=1;editable=1;locked=0;connectable=1;" vertex="1" parent="pPu6R8bAcyK3sgMu2mBe-1">
          <mxGeometry x="747" y="750" width="30" height="60" as="geometry" />
        </mxCell>
        <mxCell id="pPu6R8bAcyK3sgMu2mBe-19" value="たまに見に来る人" style="shape=umlActor;verticalLabelPosition=bottom;verticalAlign=top;html=1;outlineConnect=0;movable=1;resizable=1;rotatable=1;deletable=1;editable=1;locked=0;connectable=1;" vertex="1" parent="pPu6R8bAcyK3sgMu2mBe-1">
          <mxGeometry x="627" y="790" width="30" height="60" as="geometry" />
        </mxCell>
        <mxCell id="pPu6R8bAcyK3sgMu2mBe-20" value="たまに見に来る人" style="shape=umlActor;verticalLabelPosition=bottom;verticalAlign=top;html=1;outlineConnect=0;movable=1;resizable=1;rotatable=1;deletable=1;editable=1;locked=0;connectable=1;" vertex="1" parent="pPu6R8bAcyK3sgMu2mBe-1">
          <mxGeometry x="867" y="790" width="30" height="60" as="geometry" />
        </mxCell>
        <mxCell id="pPu6R8bAcyK3sgMu2mBe-21" value="" style="curved=1;endArrow=classic;html=1;rounded=0;fillColor=#fff2cc;strokeColor=#d6b656;strokeWidth=6;movable=1;resizable=1;rotatable=1;deletable=1;editable=1;locked=0;connectable=1;" edge="1" parent="pPu6R8bAcyK3sgMu2mBe-1">
          <mxGeometry width="50" height="50" relative="1" as="geometry">
            <mxPoint x="677" y="980" as="sourcePoint" />
            <mxPoint x="627" y="910" as="targetPoint" />
            <Array as="points">
              <mxPoint x="627" y="980" />
              <mxPoint x="577" y="930" />
            </Array>
          </mxGeometry>
        </mxCell>
        <mxCell id="pPu6R8bAcyK3sgMu2mBe-22" value="" style="curved=1;endArrow=classic;html=1;rounded=0;strokeColor=#d6b656;strokeWidth=6;fillColor=#fff2cc;movable=1;resizable=1;rotatable=1;deletable=1;editable=1;locked=0;connectable=1;" edge="1" parent="pPu6R8bAcyK3sgMu2mBe-1">
          <mxGeometry width="50" height="50" relative="1" as="geometry">
            <mxPoint x="887" y="900" as="sourcePoint" />
            <mxPoint x="847" y="980" as="targetPoint" />
            <Array as="points">
              <mxPoint x="927" y="930" />
              <mxPoint x="917" y="980" />
            </Array>
          </mxGeometry>
        </mxCell>
        <mxCell id="pPu6R8bAcyK3sgMu2mBe-23" value="&lt;span style=&quot;font-size: 14px;&quot;&gt;&lt;b&gt;運動場&lt;/b&gt;&lt;/span&gt;&lt;br&gt;&lt;span style=&quot;font-size: 14px;&quot;&gt;&lt;b&gt;Field&lt;/b&gt;&lt;/span&gt;&lt;b style=&quot;font-size: 14px;&quot;&gt;&amp;nbsp;(Discord / On-site&lt;/b&gt;&lt;b style=&quot;font-size: 14px;&quot;&gt;&amp;nbsp;/ SNS&lt;/b&gt;&lt;b style=&quot;font-size: 14px;&quot;&gt;)&lt;/b&gt;" style="text;html=1;align=center;verticalAlign=middle;whiteSpace=wrap;rounded=0;movable=1;resizable=1;rotatable=1;deletable=1;editable=1;locked=0;connectable=1;" vertex="1" parent="pPu6R8bAcyK3sgMu2mBe-1">
          <mxGeometry x="661.06" y="1310" width="201.87" height="40" as="geometry" />
        </mxCell>
        <mxCell id="pPu6R8bAcyK3sgMu2mBe-24" value="発表会の観客" style="shape=umlActor;verticalLabelPosition=bottom;verticalAlign=top;html=1;outlineConnect=0;movable=1;resizable=1;rotatable=1;deletable=1;editable=1;locked=0;connectable=1;" vertex="1" parent="pPu6R8bAcyK3sgMu2mBe-1">
          <mxGeometry x="587" y="610" width="30" height="60" as="geometry" />
        </mxCell>
        <mxCell id="pPu6R8bAcyK3sgMu2mBe-25" value="発表会の観客" style="shape=umlActor;verticalLabelPosition=bottom;verticalAlign=top;html=1;outlineConnect=0;movable=1;resizable=1;rotatable=1;deletable=1;editable=1;locked=0;connectable=1;" vertex="1" parent="pPu6R8bAcyK3sgMu2mBe-1">
          <mxGeometry x="747" y="560" width="30" height="60" as="geometry" />
        </mxCell>
        <mxCell id="pPu6R8bAcyK3sgMu2mBe-26" value="発表会の観客" style="shape=umlActor;verticalLabelPosition=bottom;verticalAlign=top;html=1;outlineConnect=0;movable=1;resizable=1;rotatable=1;deletable=1;editable=1;locked=0;connectable=1;" vertex="1" parent="pPu6R8bAcyK3sgMu2mBe-1">
          <mxGeometry x="917" y="610" width="30" height="60" as="geometry" />
        </mxCell>
        <mxCell id="pPu6R8bAcyK3sgMu2mBe-27" value="" style="curved=1;endArrow=classic;html=1;rounded=0;fillColor=#fff2cc;strokeColor=#d6b656;strokeWidth=6;movable=1;resizable=1;rotatable=1;deletable=1;editable=1;locked=0;connectable=1;" edge="1" parent="pPu6R8bAcyK3sgMu2mBe-1">
          <mxGeometry width="50" height="50" relative="1" as="geometry">
            <mxPoint x="587" y="810" as="sourcePoint" />
            <mxPoint x="537" y="740" as="targetPoint" />
            <Array as="points">
              <mxPoint x="537" y="810" />
              <mxPoint x="487" y="760" />
            </Array>
          </mxGeometry>
        </mxCell>
        <mxCell id="pPu6R8bAcyK3sgMu2mBe-28" value="" style="curved=1;endArrow=classic;html=1;rounded=0;strokeColor=#d6b656;strokeWidth=6;fillColor=#fff2cc;movable=1;resizable=1;rotatable=1;deletable=1;editable=1;locked=0;connectable=1;" edge="1" parent="pPu6R8bAcyK3sgMu2mBe-1">
          <mxGeometry width="50" height="50" relative="1" as="geometry">
            <mxPoint x="967" y="722" as="sourcePoint" />
            <mxPoint x="927" y="802" as="targetPoint" />
            <Array as="points">
              <mxPoint x="1007" y="752" />
              <mxPoint x="997" y="802" />
            </Array>
          </mxGeometry>
        </mxCell>
        <mxCell id="pPu6R8bAcyK3sgMu2mBe-29" value="&lt;span style=&quot;font-size: 14px;&quot;&gt;&lt;b&gt;発表会&lt;/b&gt;&lt;/span&gt;&lt;br&gt;&lt;span style=&quot;font-size: 14px;&quot;&gt;&lt;b&gt;Showcase&lt;/b&gt;&lt;/span&gt;&lt;b style=&quot;font-size: 14px;&quot;&gt;&amp;nbsp;(On-site&lt;/b&gt;&lt;b style=&quot;font-size: 14px;&quot;&gt;)&lt;/b&gt;" style="text;html=1;align=center;verticalAlign=middle;whiteSpace=wrap;rounded=0;movable=1;resizable=1;rotatable=1;deletable=1;editable=1;locked=0;connectable=1;" vertex="1" parent="pPu6R8bAcyK3sgMu2mBe-1">
          <mxGeometry x="661.06" y="1380" width="201.87" height="40" as="geometry" />
        </mxCell>
        <mxCell id="pPu6R8bAcyK3sgMu2mBe-30" value="公演の観客" style="shape=umlActor;verticalLabelPosition=bottom;verticalAlign=top;html=1;outlineConnect=0;movable=1;resizable=1;rotatable=1;deletable=1;editable=1;locked=0;connectable=1;" vertex="1" parent="pPu6R8bAcyK3sgMu2mBe-1">
          <mxGeometry x="537" y="450" width="30" height="60" as="geometry" />
        </mxCell>
        <mxCell id="pPu6R8bAcyK3sgMu2mBe-31" value="公演の観客" style="shape=umlActor;verticalLabelPosition=bottom;verticalAlign=top;html=1;outlineConnect=0;movable=1;resizable=1;rotatable=1;deletable=1;editable=1;locked=0;connectable=1;" vertex="1" parent="pPu6R8bAcyK3sgMu2mBe-1">
          <mxGeometry x="637" y="360" width="30" height="60" as="geometry" />
        </mxCell>
        <mxCell id="pPu6R8bAcyK3sgMu2mBe-32" value="公演の観客" style="shape=umlActor;verticalLabelPosition=bottom;verticalAlign=top;html=1;outlineConnect=0;movable=1;resizable=1;rotatable=1;deletable=1;editable=1;locked=0;connectable=1;" vertex="1" parent="pPu6R8bAcyK3sgMu2mBe-1">
          <mxGeometry x="487" y="360" width="30" height="60" as="geometry" />
        </mxCell>
        <mxCell id="pPu6R8bAcyK3sgMu2mBe-33" value="公演の観客" style="shape=umlActor;verticalLabelPosition=bottom;verticalAlign=top;html=1;outlineConnect=0;movable=1;resizable=1;rotatable=1;deletable=1;editable=1;locked=0;connectable=1;" vertex="1" parent="pPu6R8bAcyK3sgMu2mBe-1">
          <mxGeometry x="997" y="340" width="30" height="60" as="geometry" />
        </mxCell>
        <mxCell id="pPu6R8bAcyK3sgMu2mBe-34" value="公演の観客" style="shape=umlActor;verticalLabelPosition=bottom;verticalAlign=top;html=1;outlineConnect=0;movable=1;resizable=1;rotatable=1;deletable=1;editable=1;locked=0;connectable=1;" vertex="1" parent="pPu6R8bAcyK3sgMu2mBe-1">
          <mxGeometry x="967" y="460" width="30" height="60" as="geometry" />
        </mxCell>
        <mxCell id="pPu6R8bAcyK3sgMu2mBe-35" value="公演の観客" style="shape=umlActor;verticalLabelPosition=bottom;verticalAlign=top;html=1;outlineConnect=0;movable=1;resizable=1;rotatable=1;deletable=1;editable=1;locked=0;connectable=1;" vertex="1" parent="pPu6R8bAcyK3sgMu2mBe-1">
          <mxGeometry x="747" y="410" width="30" height="60" as="geometry" />
        </mxCell>
        <mxCell id="pPu6R8bAcyK3sgMu2mBe-36" value="公演の観客" style="shape=umlActor;verticalLabelPosition=bottom;verticalAlign=top;html=1;outlineConnect=0;movable=1;resizable=1;rotatable=1;deletable=1;editable=1;locked=0;connectable=1;" vertex="1" parent="pPu6R8bAcyK3sgMu2mBe-1">
          <mxGeometry x="847" y="370" width="30" height="60" as="geometry" />
        </mxCell>
        <mxCell id="pPu6R8bAcyK3sgMu2mBe-37" value="公演の観客" style="shape=umlActor;verticalLabelPosition=bottom;verticalAlign=top;html=1;outlineConnect=0;movable=1;resizable=1;rotatable=1;deletable=1;editable=1;locked=0;connectable=1;" vertex="1" parent="pPu6R8bAcyK3sgMu2mBe-1">
          <mxGeometry x="417" y="460" width="30" height="60" as="geometry" />
        </mxCell>
        <mxCell id="pPu6R8bAcyK3sgMu2mBe-38" value="公演の観客" style="shape=umlActor;verticalLabelPosition=bottom;verticalAlign=top;html=1;outlineConnect=0;movable=1;resizable=1;rotatable=1;deletable=1;editable=1;locked=0;connectable=1;" vertex="1" parent="pPu6R8bAcyK3sgMu2mBe-1">
          <mxGeometry x="1097" y="470" width="30" height="60" as="geometry" />
        </mxCell>
        <mxCell id="pPu6R8bAcyK3sgMu2mBe-39" value="公演の観客" style="shape=umlActor;verticalLabelPosition=bottom;verticalAlign=top;html=1;outlineConnect=0;movable=1;resizable=1;rotatable=1;deletable=1;editable=1;locked=0;connectable=1;" vertex="1" parent="pPu6R8bAcyK3sgMu2mBe-1">
          <mxGeometry x="737" y="290" width="30" height="60" as="geometry" />
        </mxCell>
        <mxCell id="pPu6R8bAcyK3sgMu2mBe-40" value="公演の観客" style="shape=umlActor;verticalLabelPosition=bottom;verticalAlign=top;html=1;outlineConnect=0;movable=1;resizable=1;rotatable=1;deletable=1;editable=1;locked=0;connectable=1;" vertex="1" parent="pPu6R8bAcyK3sgMu2mBe-1">
          <mxGeometry x="1162" y="620" width="30" height="60" as="geometry" />
        </mxCell>
        <mxCell id="pPu6R8bAcyK3sgMu2mBe-41" value="公演の観客" style="shape=umlActor;verticalLabelPosition=bottom;verticalAlign=top;html=1;outlineConnect=0;movable=1;resizable=1;rotatable=1;deletable=1;editable=1;locked=0;connectable=1;" vertex="1" parent="pPu6R8bAcyK3sgMu2mBe-1">
          <mxGeometry x="317" y="510" width="30" height="60" as="geometry" />
        </mxCell>
        <mxCell id="pPu6R8bAcyK3sgMu2mBe-42" value="公演の観客" style="shape=umlActor;verticalLabelPosition=bottom;verticalAlign=top;html=1;outlineConnect=0;movable=1;resizable=1;rotatable=1;deletable=1;editable=1;locked=0;connectable=1;" vertex="1" parent="pPu6R8bAcyK3sgMu2mBe-1">
          <mxGeometry x="347" y="610" width="30" height="60" as="geometry" />
        </mxCell>
        <mxCell id="pPu6R8bAcyK3sgMu2mBe-43" value="公演の観客" style="shape=umlActor;verticalLabelPosition=bottom;verticalAlign=top;html=1;outlineConnect=0;movable=1;resizable=1;rotatable=1;deletable=1;editable=1;locked=0;connectable=1;" vertex="1" parent="pPu6R8bAcyK3sgMu2mBe-1">
          <mxGeometry x="1197" y="530" width="30" height="60" as="geometry" />
        </mxCell>
        <mxCell id="pPu6R8bAcyK3sgMu2mBe-44" value="" style="curved=1;endArrow=classic;html=1;rounded=0;fillColor=#fff2cc;strokeColor=#d6b656;strokeWidth=6;movable=1;resizable=1;rotatable=1;deletable=1;editable=1;locked=0;connectable=1;" edge="1" parent="pPu6R8bAcyK3sgMu2mBe-1">
          <mxGeometry width="50" height="50" relative="1" as="geometry">
            <mxPoint x="517" y="660" as="sourcePoint" />
            <mxPoint x="467" y="590" as="targetPoint" />
            <Array as="points">
              <mxPoint x="467" y="660" />
              <mxPoint x="417" y="610" />
            </Array>
          </mxGeometry>
        </mxCell>
        <mxCell id="pPu6R8bAcyK3sgMu2mBe-45" value="" style="curved=1;endArrow=classic;html=1;rounded=0;strokeColor=#d6b656;strokeWidth=6;fillColor=#fff2cc;movable=1;resizable=1;rotatable=1;deletable=1;editable=1;locked=0;connectable=1;" edge="1" parent="pPu6R8bAcyK3sgMu2mBe-1">
          <mxGeometry width="50" height="50" relative="1" as="geometry">
            <mxPoint x="1047" y="570" as="sourcePoint" />
            <mxPoint x="1007" y="650" as="targetPoint" />
            <Array as="points">
              <mxPoint x="1087" y="600" />
              <mxPoint x="1077" y="650" />
            </Array>
          </mxGeometry>
        </mxCell>
        <mxCell id="pPu6R8bAcyK3sgMu2mBe-46" value="&lt;span style=&quot;font-size: 14px;&quot;&gt;&lt;b&gt;公演&lt;/b&gt;&lt;/span&gt;&lt;br&gt;&lt;span style=&quot;font-size: 14px;&quot;&gt;&lt;b&gt;Public Stage&lt;/b&gt;&lt;/span&gt;&lt;b style=&quot;font-size: 14px;&quot;&gt;&amp;nbsp;(On-site&lt;/b&gt;&lt;b style=&quot;font-size: 14px;&quot;&gt;)&lt;/b&gt;" style="text;html=1;align=center;verticalAlign=middle;whiteSpace=wrap;rounded=0;movable=1;resizable=1;rotatable=1;deletable=1;editable=1;locked=0;connectable=1;" vertex="1" parent="pPu6R8bAcyK3sgMu2mBe-1">
          <mxGeometry x="661.06" y="1450" width="201.87" height="40" as="geometry" />
        </mxCell>
        <mxCell id="pPu6R8bAcyK3sgMu2mBe-47" value="赤の他人" style="shape=umlActor;verticalLabelPosition=bottom;verticalAlign=top;html=1;outlineConnect=0;movable=1;resizable=1;rotatable=1;deletable=1;editable=1;locked=0;connectable=1;" vertex="1" parent="pPu6R8bAcyK3sgMu2mBe-1">
          <mxGeometry x="357" y="210" width="30" height="60" as="geometry" />
        </mxCell>
        <mxCell id="pPu6R8bAcyK3sgMu2mBe-48" value="赤の他人" style="shape=umlActor;verticalLabelPosition=bottom;verticalAlign=top;html=1;outlineConnect=0;movable=1;resizable=1;rotatable=1;deletable=1;editable=1;locked=0;connectable=1;" vertex="1" parent="pPu6R8bAcyK3sgMu2mBe-1">
          <mxGeometry x="467" y="130" width="30" height="60" as="geometry" />
        </mxCell>
        <mxCell id="pPu6R8bAcyK3sgMu2mBe-49" value="赤の他人" style="shape=umlActor;verticalLabelPosition=bottom;verticalAlign=top;html=1;outlineConnect=0;movable=1;resizable=1;rotatable=1;deletable=1;editable=1;locked=0;connectable=1;" vertex="1" parent="pPu6R8bAcyK3sgMu2mBe-1">
          <mxGeometry x="567" y="150" width="30" height="60" as="geometry" />
        </mxCell>
        <mxCell id="pPu6R8bAcyK3sgMu2mBe-50" value="赤の他人" style="shape=umlActor;verticalLabelPosition=bottom;verticalAlign=top;html=1;outlineConnect=0;movable=1;resizable=1;rotatable=1;deletable=1;editable=1;locked=0;connectable=1;" vertex="1" parent="pPu6R8bAcyK3sgMu2mBe-1">
          <mxGeometry x="727" y="90" width="30" height="60" as="geometry" />
        </mxCell>
        <mxCell id="pPu6R8bAcyK3sgMu2mBe-51" value="赤の他人" style="shape=umlActor;verticalLabelPosition=bottom;verticalAlign=top;html=1;outlineConnect=0;movable=1;resizable=1;rotatable=1;deletable=1;editable=1;locked=0;connectable=1;" vertex="1" parent="pPu6R8bAcyK3sgMu2mBe-1">
          <mxGeometry x="847" y="76" width="30" height="60" as="geometry" />
        </mxCell>
        <mxCell id="pPu6R8bAcyK3sgMu2mBe-52" value="赤の他人" style="shape=umlActor;verticalLabelPosition=bottom;verticalAlign=top;html=1;outlineConnect=0;movable=1;resizable=1;rotatable=1;deletable=1;editable=1;locked=0;connectable=1;" vertex="1" parent="pPu6R8bAcyK3sgMu2mBe-1">
          <mxGeometry x="987" y="136" width="30" height="60" as="geometry" />
        </mxCell>
        <mxCell id="pPu6R8bAcyK3sgMu2mBe-53" value="赤の他人" style="shape=umlActor;verticalLabelPosition=bottom;verticalAlign=top;html=1;outlineConnect=0;movable=1;resizable=1;rotatable=1;deletable=1;editable=1;locked=0;connectable=1;" vertex="1" parent="pPu6R8bAcyK3sgMu2mBe-1">
          <mxGeometry x="1077" y="190" width="30" height="60" as="geometry" />
        </mxCell>
        <mxCell id="pPu6R8bAcyK3sgMu2mBe-54" value="赤の他人" style="shape=umlActor;verticalLabelPosition=bottom;verticalAlign=top;html=1;outlineConnect=0;movable=1;resizable=1;rotatable=1;deletable=1;editable=1;locked=0;connectable=1;" vertex="1" parent="pPu6R8bAcyK3sgMu2mBe-1">
          <mxGeometry x="1187" y="270" width="30" height="60" as="geometry" />
        </mxCell>
        <mxCell id="pPu6R8bAcyK3sgMu2mBe-55" value="赤の他人" style="shape=umlActor;verticalLabelPosition=bottom;verticalAlign=top;html=1;outlineConnect=0;movable=1;resizable=1;rotatable=1;deletable=1;editable=1;locked=0;connectable=1;" vertex="1" parent="pPu6R8bAcyK3sgMu2mBe-1">
          <mxGeometry x="1257" y="350" width="30" height="60" as="geometry" />
        </mxCell>
        <mxCell id="pPu6R8bAcyK3sgMu2mBe-56" value="赤の他人" style="shape=umlActor;verticalLabelPosition=bottom;verticalAlign=top;html=1;outlineConnect=0;movable=1;resizable=1;rotatable=1;deletable=1;editable=1;locked=0;connectable=1;" vertex="1" parent="pPu6R8bAcyK3sgMu2mBe-1">
          <mxGeometry x="247" y="280" width="30" height="60" as="geometry" />
        </mxCell>
        <mxCell id="pPu6R8bAcyK3sgMu2mBe-57" value="赤の他人" style="shape=umlActor;verticalLabelPosition=bottom;verticalAlign=top;html=1;outlineConnect=0;movable=1;resizable=1;rotatable=1;deletable=1;editable=1;locked=0;connectable=1;" vertex="1" parent="pPu6R8bAcyK3sgMu2mBe-1">
          <mxGeometry x="187" y="370" width="30" height="60" as="geometry" />
        </mxCell>
        <mxCell id="pPu6R8bAcyK3sgMu2mBe-58" value="赤の他人" style="shape=umlActor;verticalLabelPosition=bottom;verticalAlign=top;html=1;outlineConnect=0;movable=1;resizable=1;rotatable=1;deletable=1;editable=1;locked=0;connectable=1;" vertex="1" parent="pPu6R8bAcyK3sgMu2mBe-1">
          <mxGeometry x="117" y="470" width="30" height="60" as="geometry" />
        </mxCell>
        <mxCell id="pPu6R8bAcyK3sgMu2mBe-59" value="赤の他人" style="shape=umlActor;verticalLabelPosition=bottom;verticalAlign=top;html=1;outlineConnect=0;movable=1;resizable=1;rotatable=1;deletable=1;editable=1;locked=0;connectable=1;" vertex="1" parent="pPu6R8bAcyK3sgMu2mBe-1">
          <mxGeometry x="1307" y="460" width="30" height="60" as="geometry" />
        </mxCell>
        <mxCell id="pPu6R8bAcyK3sgMu2mBe-60" value="赤の他人" style="shape=umlActor;verticalLabelPosition=bottom;verticalAlign=top;html=1;outlineConnect=0;movable=1;resizable=1;rotatable=1;deletable=1;editable=1;locked=0;connectable=1;" vertex="1" parent="pPu6R8bAcyK3sgMu2mBe-1">
          <mxGeometry x="892" y="180" width="30" height="60" as="geometry" />
        </mxCell>
        <mxCell id="pPu6R8bAcyK3sgMu2mBe-61" value="赤の他人" style="shape=umlActor;verticalLabelPosition=bottom;verticalAlign=top;html=1;outlineConnect=0;movable=1;resizable=1;rotatable=1;deletable=1;editable=1;locked=0;connectable=1;" vertex="1" parent="pPu6R8bAcyK3sgMu2mBe-1">
          <mxGeometry x="637" y="40" width="30" height="60" as="geometry" />
        </mxCell>
        <mxCell id="pPu6R8bAcyK3sgMu2mBe-62" value="&lt;span style=&quot;font-size: 14px;&quot;&gt;&lt;b&gt;公共・共有の場&lt;/b&gt;&lt;/span&gt;&lt;br&gt;&lt;span style=&quot;font-size: 14px;&quot;&gt;&lt;b&gt;Commons&lt;/b&gt;&lt;/span&gt;" style="text;html=1;align=center;verticalAlign=middle;whiteSpace=wrap;rounded=0;movable=1;resizable=1;rotatable=1;deletable=1;editable=1;locked=0;connectable=1;" vertex="1" parent="pPu6R8bAcyK3sgMu2mBe-1">
          <mxGeometry x="661.0699999999999" y="1524" width="201.87" height="40" as="geometry" />
        </mxCell>
        <mxCell id="pPu6R8bAcyK3sgMu2mBe-63" value="" style="curved=1;endArrow=classic;html=1;rounded=0;fillColor=#fff2cc;strokeColor=#d6b656;strokeWidth=6;movable=1;resizable=1;rotatable=1;deletable=1;editable=1;locked=0;connectable=1;" edge="1" parent="pPu6R8bAcyK3sgMu2mBe-1">
          <mxGeometry width="50" height="50" relative="1" as="geometry">
            <mxPoint x="412" y="435" as="sourcePoint" />
            <mxPoint x="362" y="365" as="targetPoint" />
            <Array as="points">
              <mxPoint x="362" y="435" />
              <mxPoint x="312" y="385" />
            </Array>
          </mxGeometry>
        </mxCell>
        <mxCell id="pPu6R8bAcyK3sgMu2mBe-64" value="" style="curved=1;endArrow=classic;html=1;rounded=0;strokeColor=#d6b656;strokeWidth=6;fillColor=#fff2cc;movable=1;resizable=1;rotatable=1;deletable=1;editable=1;locked=0;connectable=1;" edge="1" parent="pPu6R8bAcyK3sgMu2mBe-1">
          <mxGeometry width="50" height="50" relative="1" as="geometry">
            <mxPoint x="1137" y="350" as="sourcePoint" />
            <mxPoint x="1097" y="430" as="targetPoint" />
            <Array as="points">
              <mxPoint x="1177" y="380" />
              <mxPoint x="1167" y="430" />
            </Array>
          </mxGeometry>
        </mxCell>
      </root>
    </mxGraphModel>
  </diagram>
</mxfile>
